<?xml version="1.0" encoding="UTF-8" standalone="no"?>
<svg
   xmlns:dc="http://purl.org/dc/elements/1.1/"
   xmlns:cc="http://creativecommons.org/ns#"
   xmlns:rdf="http://www.w3.org/1999/02/22-rdf-syntax-ns#"
   xmlns:svg="http://www.w3.org/2000/svg"
   xmlns="http://www.w3.org/2000/svg"
   xmlns:sodipodi="http://sodipodi.sourceforge.net/DTD/sodipodi-0.dtd"
   xmlns:inkscape="http://www.inkscape.org/namespaces/inkscape"
   width="24"
   height="24"
   viewBox="0 0 24 24"
   version="1.1"
   id="svg4"
   sodipodi:docname="Vector (2).svg"
   style="fill:none"
   inkscape:version="0.92.3 (2405546, 2018-03-11)">
  <metadata
     id="metadata10">
    <rdf:RDF>
      <cc:Work
         rdf:about="">
        <dc:format>image/svg+xml</dc:format>
        <dc:type
           rdf:resource="http://purl.org/dc/dcmitype/StillImage" />
        <dc:title></dc:title>
      </cc:Work>
    </rdf:RDF>
  </metadata>
  <defs
     id="defs8" />
  <sodipodi:namedview
     pagecolor="#ffffff"
     bordercolor="#666666"
     borderopacity="1"
     objecttolerance="10"
     gridtolerance="10"
     guidetolerance="10"
     inkscape:pageopacity="0"
     inkscape:pageshadow="2"
     inkscape:window-width="1024"
     inkscape:window-height="703"
     id="namedview6"
     showgrid="false"
     inkscape:zoom="11.8"
     inkscape:cx="9.5"
     inkscape:cy="10"
     inkscape:window-x="0"
     inkscape:window-y="0"
     inkscape:window-maximized="1"
     inkscape:current-layer="svg4" />
  <path
     d="m 11.605495,2.5605662 c -4.420111,0 -8.103751,3.275814 -8.930988,7.6201538 h 2.527577 c 0.77879,-2.9207198 3.34704,-5.0677698 6.40341,-5.0677698 1.83727,0 3.49767,0.77644 4.69947,2.02988 l -2.9211,3.0378898 h 7.3271 V 2.5605662 l -2.6676,2.774324 c -1.6476,-1.71402 -3.9233,-2.774324 -6.437869,-2.774324 z M 2.5,13.8798 V 21.5 l 2.667624,-2.7743 c 1.64756,1.714 3.92326,2.7743 6.43787,2.7743 4.42007,0 8.10377,-3.2758 8.93097,-7.6202 h -2.527599 c -0.778701,2.9207 -3.347,5.0678 -6.40337,5.0678 -1.837331,0 -3.497641,-0.7764 -4.699471,-2.0299 l 2.9210405,-3.0379 z"
     id="path2"
     inkscape:connector-curvature="0"
     style="fill:#ff1709" />
</svg>
