<?xml version="1.0" encoding="UTF-8"?>
<svg width="24px" height="24px" viewBox="0 0 24 24" version="1.1" xmlns="http://www.w3.org/2000/svg" xmlns:xlink="http://www.w3.org/1999/xlink">
    <!-- Generator: Sketch 58 (84663) - https://sketch.com -->
    <title>ic-coin-zbtcu</title>
    <desc>Created with Sketch.</desc>
    <g id="ic-coin-zbtcu" stroke="none" stroke-width="1" fill="none" fill-rule="evenodd">
        <g transform="translate(2.000000, 2.000000)" fill="#5C4B7D" fill-rule="nonzero">
            <path d="M10,0 C4.4771525,0 0,4.4771525 0,10 C0,15.5228475 4.4771525,20 10,20 C15.5228475,20 20,15.5228475 20,10 C20,7.3478351 18.9464316,4.80429597 17.0710678,2.92893219 C15.195704,1.0535684 12.6521649,0 10,0 Z M10,19.25 C4.89136606,19.25 0.75,15.1086339 0.75,10 C0.75,4.89136606 4.89136606,0.75 10,0.75 C15.1086339,0.75 19.25,4.89136606 19.25,10 C19.25,12.4532525 18.2754492,14.8060262 16.5407377,16.5407377 C14.8060262,18.2754492 12.4532525,19.25 10,19.25 Z" id="Path_18926"></path>
            <path d="M10,1.5 C14.6944204,1.5 18.5,5.30557963 18.5,10 C18.5,14.6944204 14.6944204,18.5 10,18.5 C5.30557963,18.5 1.5,14.6944204 1.5,10 C1.5,5.30557963 5.30557963,1.5 10,1.5 Z M14.5259733,15.3207547 L9.87205772,15.3207547 L9.87205772,16 L14.5259733,16 L14.5259733,15.3207547 Z M15,8.20902123 L14.150115,8.20902123 L14.150115,11.9342571 C14.150115,12.5309582 13.9834726,12.9890167 13.6501827,13.3084463 C13.3168928,13.627876 12.8419618,13.7875884 12.2253756,13.7875884 C11.5787932,13.7875884 11.0888644,13.6286867 10.7555745,13.3108785 C10.4222846,12.9930703 10.2556422,12.537444 10.2556422,11.9439858 L10.2556422,11.9439858 L10.2555404,10.7924175 L9.40573539,10.7924175 L9.40573539,11.8856132 C9.40573539,12.7028343 9.64655553,13.3449269 10.1281594,13.8119104 C10.6097633,14.2788938 11.2904977,14.5123821 12.170383,14.5123821 C13.0502683,14.5123821 13.7418344,14.2805153 14.2451022,13.8167748 C14.7483699,13.3530342 15,12.7158059 15,11.9050708 L15,11.9050708 L15,8.20902123 Z M11.6503188,4 L6.13822129,4 L6.13822129,4.76573585 L10.409585,4.76573585 L6,9.85373585 L6,10.4935849 L11.2468244,10.4935849 L11.2468244,9.72377358 L7.32636593,9.70566038 L11.6507842,4.73222642 L11.6503188,4 Z M10.2909101,8.0754717 L9.45320532,8.0754717 L9.45320532,9.38867925 L10.2909101,9.38867925 L10.2909101,8.0754717 Z" id="Combined-Shape"></path>
        </g>
    </g>
</svg>