<?xml version="1.0" encoding="UTF-8"?>
<svg width="24px" height="24px" viewBox="0 0 24 24" version="1.1" xmlns="http://www.w3.org/2000/svg" xmlns:xlink="http://www.w3.org/1999/xlink">
    <!-- Generator: Sketch 58 (84663) - https://sketch.com -->
    <title>ic-coin-btcu</title>
    <desc>Created with Sketch.</desc>
    <g id="ic-coin-btcu" stroke="none" stroke-width="1" fill="none" fill-rule="evenodd">
        <g id="ic-coin-zbtcu" transform="translate(2.000000, 2.000000)" fill="#5C4B7D" fill-rule="nonzero">
            <path d="M10,0 C4.4771525,0 0,4.4771525 0,10 C0,15.5228475 4.4771525,20 10,20 C15.5228475,20 20,15.5228475 20,10 C20,7.3478351 18.9464316,4.80429597 17.0710678,2.92893219 C15.195704,1.0535684 12.6521649,0 10,0 Z M10,19.25 C4.89136606,19.25 0.75,15.1086339 0.75,10 C0.75,4.89136606 4.89136606,0.75 10,0.75 C15.1086339,0.75 19.25,4.89136606 19.25,10 C19.25,12.4532525 18.2754492,14.8060262 16.5407377,16.5407377 C14.8060262,18.2754492 12.4532525,19.25 10,19.25 Z" id="Path_18926"></path>
            <path d="M10,1.5 C14.6944204,1.5 18.5,5.30557963 18.5,10 C18.5,14.6944204 14.6944204,18.5 10,18.5 C5.30557963,18.5 1.5,14.6944204 1.5,10 C1.5,5.30557963 5.30557963,1.5 10,1.5 Z M7.20672269,12.9117647 L7.20672269,12.9117647 L7.15176761,12.919149 C7.06427285,12.9432161 7,13.0233459 7,13.1184874 L7,13.1184874 L7,14.2932773 L7.00738433,14.3482324 C7.03145144,14.4357272 7.1115812,14.5 7.20672269,14.5 L7.20672269,14.5 L12.7932773,14.5 L12.8482324,14.4926157 C12.9357272,14.4685486 13,14.3884188 13,14.2932773 L13,14.2932773 L13,13.1184874 L12.9926157,13.0635323 C12.9685486,12.9760376 12.8884188,12.9117647 12.7932773,12.9117647 L12.7932773,12.9117647 Z M8.23506731,5.5 L7.52390658,5.5 L7.43892622,5.50733658 C7.21765351,5.54595205 7.0429486,5.73287426 7.00685705,5.96962082 L7.00685705,5.96962082 L7,6.06054395 L7,8.49184568 L7.00590415,8.74081813 C7.04526507,9.55543254 7.28142989,10.2169099 7.71438356,10.7192699 L7.71438356,10.7192699 L7.85017331,10.8651984 L8.00838455,11.0095841 C8.49397106,11.4224752 9.07832762,11.6527605 9.76671593,11.6946887 L9.76671593,11.6946887 L10.0000389,11.7016807 L10.2333596,11.6946887 C10.921734,11.6527605 11.5060214,11.4224752 11.9916114,11.0095841 L11.9916114,11.0095841 L12.1498267,10.8651984 L12.28495,10.7200482 C12.7158843,10.2204458 12.9520491,9.56335454 12.9934294,8.75464224 L12.9934294,8.75464224 L13,8.50748579 L13,6.055488 L12.9924826,5.96527348 C12.9548967,5.73043107 12.780768,5.54546279 12.5606265,5.50725801 L12.5606265,5.50725801 L12.4760934,5.5 L11.7649587,5.5 L11.6799657,5.50733658 C11.4586668,5.54595205 11.2839922,5.73287426 11.2479077,5.96962082 L11.2479077,5.96962082 L11.2410521,6.06054395 L11.2410521,8.58599195 L11.2351661,8.75483513 C11.1805538,9.51653792 10.7504382,9.91149352 10.1347446,9.96076893 L10.1347446,9.96076893 L10.0000389,9.96604459 L9.86854183,9.96076893 C9.26582183,9.91149352 8.8216222,9.51653792 8.76507434,8.75483513 L8.76507434,8.75483513 L8.75897389,8.58599195 L8.75897389,6.06054395 L8.75211684,5.96962082 C8.71602529,5.73287426 8.54132039,5.54595205 8.32004767,5.50733658 L8.32004767,5.50733658 L8.23506731,5.5 Z" id="Combined-Shape"></path>
        </g>
    </g>
</svg>