<?xml version="1.0" encoding="UTF-8" standalone="no"?>
<svg
   xmlns:dc="http://purl.org/dc/elements/1.1/"
   xmlns:cc="http://creativecommons.org/ns#"
   xmlns:rdf="http://www.w3.org/1999/02/22-rdf-syntax-ns#"
   xmlns:svg="http://www.w3.org/2000/svg"
   xmlns="http://www.w3.org/2000/svg"
   xmlns:sodipodi="http://sodipodi.sourceforge.net/DTD/sodipodi-0.dtd"
   xmlns:inkscape="http://www.inkscape.org/namespaces/inkscape"
   width="24"
   height="24"
   viewBox="0 0 24 24"
   version="1.1"
   id="svg4"
   sodipodi:docname="_.svg"
   style="fill:none"
   inkscape:version="0.92.3 (2405546, 2018-03-11)">
  <metadata
     id="metadata10">
    <rdf:RDF>
      <cc:Work
         rdf:about="">
        <dc:format>image/svg+xml</dc:format>
        <dc:type
           rdf:resource="http://purl.org/dc/dcmitype/StillImage" />
        <dc:title></dc:title>
      </cc:Work>
    </rdf:RDF>
  </metadata>
  <defs
     id="defs8" />
  <sodipodi:namedview
     pagecolor="#ffffff"
     bordercolor="#666666"
     borderopacity="1"
     objecttolerance="10"
     gridtolerance="10"
     guidetolerance="10"
     inkscape:pageopacity="0"
     inkscape:pageshadow="2"
     inkscape:window-width="1024"
     inkscape:window-height="703"
     id="namedview6"
     showgrid="false"
     inkscape:zoom="11.8"
     inkscape:cx="7.5"
     inkscape:cy="10"
     inkscape:window-x="0"
     inkscape:window-y="0"
     inkscape:window-maximized="1"
     inkscape:current-layer="svg4" />
  <path
     d="m 10.414333,15.1436 c 0,-0.947 0.20799,-1.7301 0.62398,-2.3492 0.43408,-0.61922 1.05807,-1.30213 1.87197,-2.04878 0.59686,-0.54633 1.03094,-1.0016 1.30224,-1.36582 0.28934,-0.38243 0.43404,-0.81039 0.43404,-1.28388 0,-0.6738 -0.2713,-1.20192 -0.81386,-1.58435 -0.52451,-0.40064 -1.22989,-0.60096 -2.11614,-0.60096 -0.85007,0 -1.60971,0.18211 -2.27891,0.54633 -0.65112,0.346 -1.20276,0.8377 -1.65493,1.47509 L 4.5,5.99256 c 0.759639,-1.1655 1.781533,-2.06695 3.065683,-2.704334 1.30224,-0.637384 2.8396,-0.9560752 4.61209,-0.9560752 2.07997,0 3.74389,0.4461692 4.99189,1.3385092 1.2661,0.89234 1.8991,2.13068 1.8991,3.71504 0,0.74665 -0.1266,1.40224 -0.3798,1.96678 -0.2351,0.56454 -0.5336,1.04713 -0.8953,1.44778 -0.3436,0.38243 -0.7958,0.8286 -1.3565,1.3385 -0.6692,0.60094 -1.1575,1.11084 -1.465,1.52974 -0.3075,0.4006 -0.4612,0.8923 -0.4612,1.4751 z M 12.476203,22 c -0.74155,0 -1.36554,-0.2367 -1.87196,-0.7102 -0.48834,-0.4917 -0.73251,-1.0836 -0.73251,-1.7756 0,-0.692 0.24417,-1.2657 0.73251,-1.7209 0.48834,-0.4735 1.11232,-0.7103 1.87196,-0.7103 0.75964,0 1.38363,0.2368 1.87196,0.7103 0.4883,0.4552 0.7325,1.0289 0.7325,1.7209 0,0.692 -0.2532,1.2839 -0.75962,1.7756 C 13.832703,21.7633 13.217753,22 12.476203,22 Z"
     id="path2"
     inkscape:connector-curvature="0"
     style="fill:#ff1709" />
</svg>
