<svg width="10" height="10" viewBox="0 0 10 10" fill="none" xmlns="http://www.w3.org/2000/svg">
<path d="M4.19317 7.41113L8.5 5L4.19317 2.58026L4.19317 3.20085L4.17773 3.82984L0.160157 3.82984C-0.0582282 4.58771 -0.0543221 5.41791 0.164063 6.17578L4.19317 6.17578L4.19317 7.41113Z" fill="white"/>
<path d="M4.20631 3.83999L4.20631 2.58999L8.37448 4.99999L4.20631 7.39999L4.20631 6.15999L0.159974 6.15999C0.443767 7.35152 1.15448 8.39727 2.15725 9.09881C3.16002 9.80034 4.38507 10.1088 5.59994 9.96577C6.81481 9.82269 7.93496 9.238 8.74784 8.32264C9.56072 7.40728 10.0098 6.22494 10.0098 4.99999C10.0098 3.77503 9.56072 2.5927 8.74784 1.67734C7.93496 0.761974 6.81481 0.177282 5.59994 0.0342079C4.38507 -0.108866 3.16002 0.199633 2.15725 0.901167C1.15448 1.6027 0.443767 2.64845 0.159975 3.83999L4.20631 3.83999Z" fill="#FF2911"/>
</svg>
