<svg width="40" height="40" viewBox="0 0 40 40" fill="none" xmlns="http://www.w3.org/2000/svg">
<path d="M27.5853 10.25H12.4186C11.2237 10.25 10.252 11.2218 10.252 12.4167V16.55C10.252 16.6605 10.3415 16.75 10.452 16.75H12.2186C12.3291 16.75 12.4186 16.6605 12.4186 16.55V12.4167H27.5853V27.5833H12.4186V23.45C12.4186 23.3395 12.3291 23.25 12.2186 23.25H10.452C10.3415 23.25 10.252 23.3395 10.252 23.45V27.5833C10.252 28.7783 11.2237 29.75 12.4186 29.75H27.5853C28.7802 29.75 29.752 28.7783 29.752 27.5833V12.4167C29.752 11.2218 28.7791 10.25 27.5853 10.25Z" fill="#FF2911"/>
<path d="M18.9167 23.9172C18.9167 24.0849 19.1107 24.1781 19.2416 24.0733L24.1381 20.1561C24.2382 20.0761 24.2382 19.9239 24.1381 19.8438L19.2416 15.9266C19.1107 15.8218 18.9167 15.915 18.9167 16.0828V18.7177C18.9167 18.8282 18.8271 18.9177 18.7167 18.9177H10.45C10.3395 18.9177 10.25 19.0073 10.25 19.1177V20.8844C10.25 20.9948 10.3395 21.0844 10.45 21.0844H18.7167C18.8271 21.0844 18.9167 21.1739 18.9167 21.2844V23.9172Z" fill="#FF2911"/>
</svg>
