<?xml version="1.0" encoding="UTF-8" standalone="no"?>
<svg
   xmlns:dc="http://purl.org/dc/elements/1.1/"
   xmlns:cc="http://creativecommons.org/ns#"
   xmlns:rdf="http://www.w3.org/1999/02/22-rdf-syntax-ns#"
   xmlns:svg="http://www.w3.org/2000/svg"
   xmlns="http://www.w3.org/2000/svg"
   xmlns:sodipodi="http://sodipodi.sourceforge.net/DTD/sodipodi-0.dtd"
   xmlns:inkscape="http://www.inkscape.org/namespaces/inkscape"
   width="24"
   height="12"
   viewBox="0 0 24 12"
   version="1.1"
   id="svg4"
   sodipodi:docname="ic-label.svg"
   style="fill:none"
   inkscape:version="0.92.3 (2405546, 2018-03-11)">
  <metadata
     id="metadata10">
    <rdf:RDF>
      <cc:Work
         rdf:about="">
        <dc:format>image/svg+xml</dc:format>
        <dc:type
           rdf:resource="http://purl.org/dc/dcmitype/StillImage" />
        <dc:title></dc:title>
      </cc:Work>
    </rdf:RDF>
  </metadata>
  <defs
     id="defs8" />
  <sodipodi:namedview
     pagecolor="#ffffff"
     bordercolor="#666666"
     borderopacity="1"
     objecttolerance="10"
     gridtolerance="10"
     guidetolerance="10"
     inkscape:pageopacity="0"
     inkscape:pageshadow="2"
     inkscape:window-width="1920"
     inkscape:window-height="1015"
     id="namedview6"
     showgrid="false"
     inkscape:zoom="19.666667"
     inkscape:cx="-8.7523408"
     inkscape:cy="6.0000001"
     inkscape:window-x="0"
     inkscape:window-y="0"
     inkscape:window-maximized="1"
     inkscape:current-layer="svg4" />
  <path
     d="m 18.99839,2.39754 2.60176,2.60239 c 0.10961,0.10964 0.10961,0.28851 0,0.39815 l -6.29961,6.30112 -2.676762,0.2972 c -0.35767,0.0404 -0.660536,-0.2626 -0.620154,-0.6203 L 12.300721,8.69867 18.60033,2.39754 c 0.10961,-0.10963 0.28845,-0.10963 0.39806,0 z M 23.6712,1.73685 22.2636,0.328905 c -0.43847,-0.43854 -1.15092,-0.43854 -1.59224,0 L 19.65027,1.35024 c -0.10961,0.10964 -0.10961,0.28851 0,0.39815 L 22.252,4.35078 c 0.1096,0.10963 0.2885,0.10963 0.3981,0 l 1.0211,-1.02134 c 0.4384,-0.44142 0.4384,-1.15405 0,-1.59259 z"
     id="path2"
     inkscape:connector-curvature="0"
     style="fill:#ff1709" />
</svg>
