<?xml version="1.0" encoding="UTF-8" standalone="no"?>
<!-- Generator: Adobe Illustrator 23.1.1, SVG Export Plug-In . SVG Version: 6.00 Build 0)  -->

<svg
   xmlns:dc="http://purl.org/dc/elements/1.1/"
   xmlns:cc="http://creativecommons.org/ns#"
   xmlns:rdf="http://www.w3.org/1999/02/22-rdf-syntax-ns#"
   xmlns:svg="http://www.w3.org/2000/svg"
   xmlns="http://www.w3.org/2000/svg"
   xmlns:sodipodi="http://sodipodi.sourceforge.net/DTD/sodipodi-0.dtd"
   xmlns:inkscape="http://www.inkscape.org/namespaces/inkscape"
   version="1.1"
   id="Layer_1"
   x="0px"
   y="0px"
   width="24px"
   height="31px"
   viewBox="0 0 24 30"
   style="enable-background:new 0 0 24 30;"
   xml:space="preserve"
   sodipodi:docname="ic-nav-leasing-active.svg"
   inkscape:version="0.92.3 (2405546, 2018-03-11)"><metadata
   id="metadata15"><rdf:RDF><cc:Work
       rdf:about=""><dc:format>image/svg+xml</dc:format><dc:type
         rdf:resource="http://purl.org/dc/dcmitype/StillImage" /><dc:title>Cold Staking</dc:title></cc:Work></rdf:RDF></metadata><defs
   id="defs13" /><sodipodi:namedview
   pagecolor="#ffffff"
   bordercolor="#666666"
   borderopacity="1"
   objecttolerance="10"
   gridtolerance="10"
   guidetolerance="10"
   inkscape:pageopacity="0"
   inkscape:pageshadow="2"
   inkscape:window-width="2374"
   inkscape:window-height="1642"
   id="namedview11"
   showgrid="false"
   inkscape:zoom="60.903226"
   inkscape:cx="12.937555"
   inkscape:cy="11.336725"
   inkscape:window-x="0"
   inkscape:window-y="48"
   inkscape:window-maximized="0"
   inkscape:current-layer="Layer_1" />
<style
   type="text/css"
   id="style2">
	.st0{fill:#B088FF;}
</style>
	<title
   id="title4">Cold Staking</title>
	<desc
   id="desc6">Created with Sketch.</desc>
	<path
   class="st0"
   d="M21.7,22.1l-3-1.6l2.7-0.5c0.5,0,0.8-0.5,0.5-1.1c0-0.5-0.5-0.8-1.1-0.5l-4.3,1.1l-3-1.6l3-1.6l4.3,1.1h0.3  c0.3,0,0.8-0.3,0.8-0.5c0-0.5-0.3-0.8-0.5-1.1l-2.7-0.5l3-1.6c0.5-0.3,0.5-0.8,0.3-1.1c-0.3-0.3-0.8-0.5-1.1-0.3l-3,1.6l0.8-2.4  c0-0.5-0.3-0.8-0.5-1.1c-0.5,0-1.1,0.3-1.1,0.5L16,14.8l-3,1.6v-3.3l3.3-3c0.3-0.3,0.3-0.8,0-1.1c-0.3-0.3-0.8-0.3-1.4,0L13.1,11  V7.8c0-0.5-0.3-0.8-0.8-0.8c-0.5,0-0.8,0.3-0.8,0.8V11L9.3,8.9C9,8.6,8.5,8.6,7.9,8.9c-0.3,0.3-0.3,0.8,0,1.1l3.3,3v3.3l-3-1.6  l-1.1-4.1c0-0.5-0.5-0.8-1.1-0.5c-0.5,0-0.8,0.5-0.5,1.1l0.8,2.4l-3-1.6c-0.5-0.3-1.1,0-1.1,0.3c-0.3,0.3,0,0.8,0.3,1.1l3,1.6  l-2.7,0.5c-0.5,0-0.8,0.5-0.5,1.1C2.2,16.7,2.8,17,3,17h0.3l4.3-1.1l3,1.6l-3,1.6l-4.3-1.1c-0.5,0-1.1,0.3-1.1,0.5  c0,0.5,0.3,0.8,0.5,1.1l2.7,0.5l-3,1.6c-0.5,0.3-0.5,0.8-0.3,1.1c0.3,0.3,0.5,0.5,0.8,0.5s0.3,0,0.5,0l2.7-1.6l-0.8,2.7  c0,0.5,0.3,0.8,0.5,1.1h0.3c0.3,0,0.8-0.3,0.8-0.5l1.1-4.1l3-1.6v3.3l-3.3,3c-0.3,0.3-0.3,0.8,0,1.1s0.8,0.3,1.4,0l1.9-1.9v3.3  c0,0.5,0.3,0.8,0.8,0.8c0.5,0,0.8-0.3,0.8-0.8v-3.3l1.9,1.9C15,27,15,27,15.2,27c0.3,0,0.5,0,0.5-0.3c0.3-0.3,0.3-0.8,0-1.1l-3.3-3  v-3.5l3,1.6l1.1,4.1c0,0.3,0.5,0.5,0.8,0.5h0.3c0.5,0,0.8-0.5,0.5-1.1v-2.4l3,1.6c0.3,0,0.3,0,0.5,0c0.3,0,0.5-0.3,0.8-0.5  C22.6,23,22.3,22.4,21.7,22.1z"
   id="path8" />
<path
   style="fill:none;stroke:#000000;stroke-width:1px;stroke-linecap:butt;stroke-linejoin:miter;stroke-opacity:1"
   d="m 11.477225,16.510593 c -0.02587,0.04066 -0.108392,0.05256 -0.147776,0.0821 -0.01238,0.0093 -0.02189,0.02189 -0.03284,0.03284 -0.02189,0.02189 -0.04378,0.04378 -0.06568,0.06568 -0.03284,0.03284 -0.06568,0.06568 -0.09852,0.09852 -0.01642,0.01642 -0.03533,0.03068 -0.04926,0.04926 -0.0073,0.0098 -0.0096,0.02266 -0.01642,0.03284 -0.01611,0.02416 -0.04957,0.04152 -0.06568,0.06568 -0.0068,0.01018 -0.0078,0.02418 -0.01642,0.03284 -0.03988,0.03988 -0.02411,-0.0049 -0.04926,0.03284 -0.01358,0.02037 -0.01926,0.04531 -0.03284,0.06568 -0.01288,0.01932 -0.03533,0.03068 -0.04926,0.04926 -0.0073,0.0098 -0.0091,0.02305 -0.01642,0.03284 -0.08858,0.118105 0.01823,-0.03465 -0.06568,0.04926 -0.0087,0.0087 -0.0091,0.02305 -0.01642,0.03284 -0.0093,0.01238 -0.02355,0.02045 -0.03284,0.03284 -0.0073,0.0098 -0.0078,0.02419 -0.01642,0.03284 -0.0087,0.0087 -0.02266,0.0096 -0.03284,0.01642 -0.007,0.0046 -0.04586,0.04246 -0.04926,0.04926 -0.0024,0.0049 0.0024,0.01152 0,0.01642 -0.0069,0.01385 -0.02592,0.01899 -0.03284,0.03284 -0.0024,0.0049 0.0039,0.01255 0,0.01642 -0.0039,0.0039 -0.01715,-0.0054 -0.01642,0 0.0033,0.02462 0.01723,0.04661 0.02585,0.06992"
   id="path3720"
   inkscape:connector-curvature="0" /><path
   style="fill:none;stroke:#000000;stroke-width:1px;stroke-linecap:butt;stroke-linejoin:miter;stroke-opacity:1"
   d="m 10.606992,17.692797 c 0.01728,0.01037 0.106085,0.06188 0.131355,0.0821 0.01209,0.0097 0.02075,0.02317 0.03284,0.03284 0.01541,0.01233 0.03284,0.02189 0.04926,0.03284 0.03284,0.02189 0.06425,0.0461 0.09852,0.06568 0.02125,0.01214 0.04576,0.01861 0.06568,0.03284 0.01889,0.0135 0.03142,0.03439 0.04926,0.04926 0.03032,0.02527 0.0682,0.04041 0.09852,0.06568 0.02973,0.02478 0.05188,0.05792 0.0821,0.0821 0.01541,0.01233 0.03385,0.02051 0.04926,0.03284 0.02418,0.01934 0.0415,0.04634 0.06568,0.06568 0.01541,0.01233 0.03385,0.02051 0.04926,0.03284 0.01209,0.0097 0.02045,0.02355 0.03284,0.03284 0.0098,0.0073 0.02418,0.0078 0.03284,0.01642 0.01395,0.01395 0.01889,0.03531 0.03284,0.04926 0.0087,0.0087 0.02305,0.0091 0.03284,0.01642 0.01238,0.0093 0.02045,0.02355 0.03284,0.03284 0.0098,0.0073 0.02305,0.0091 0.03284,0.01642 0.01858,0.01393 0.02994,0.03638 0.04926,0.04926 0.01018,0.0068 0.02266,0.0096 0.03284,0.01642 0.0088,0.0059 0.06446,0.06406 0.06568,0.06568 0.0073,0.0098 0.0091,0.02305 0.01642,0.03284 0.0093,0.01238 0.02189,0.02189 0.03284,0.03284 0.02189,0.02189 0.04379,0.04378 0.06568,0.06568 0.01095,0.01095 0.02355,0.02045 0.03284,0.03284 0.0073,0.0098 0.0091,0.02305 0.01642,0.03284 0.0093,0.01238 0.02189,0.02189 0.03284,0.03284 0.01095,0.01095 0.02189,0.02189 0.03284,0.03284 0.03831,0.03831 0.07662,0.07662 0.114936,0.114936"
   id="path3722"
   inkscape:connector-curvature="0" /><path
   style="fill:none;stroke:#000000;stroke-width:1px;stroke-linecap:butt;stroke-linejoin:miter;stroke-opacity:1"
   d="m 12.068363,18.940713 c -0.01096,0.02735 -0.0055,0.09302 -0.03288,0.08206 -0.02735,-0.01096 0.01204,-0.06123 0.03288,-0.08206 0.02596,-0.02596 0.06862,-0.02795 0.09848,-0.04929 0.01,-0.0071 0.0078,-0.02418 0.01642,-0.03284 0.0087,-0.0087 0.02305,-0.0091 0.03284,-0.01642 0.01238,-0.0093 0.02189,-0.02189 0.03284,-0.03284 0.01095,-0.01095 0.02189,-0.02189 0.03284,-0.03284 0.06568,-0.06568 0.131356,-0.131356 0.197034,-0.197034 0.0219,-0.0219 0.04378,-0.04378 0.06568,-0.06568 0.01095,-0.01095 0.02045,-0.02355 0.03284,-0.03284 0.0098,-0.0073 0.02305,-0.0091 0.03284,-0.01642 0.01238,-0.0093 0.02189,-0.02189 0.03284,-0.03284 0.01095,-0.01095 0.02355,-0.02046 0.03284,-0.03284 0.0073,-0.0098 0.0091,-0.02305 0.01642,-0.03284 0.0093,-0.01238 0.02189,-0.02189 0.03284,-0.03284 0.03284,-0.03284 0.06568,-0.06568 0.09852,-0.09852 0.01095,-0.01095 0.02189,-0.02189 0.03284,-0.03284 0.01095,-0.01095 0.02355,-0.02045 0.03284,-0.03284 0.07003,-0.09337 -0.05129,0.03487 0.04926,-0.06568 0.100546,-0.100545 -0.02077,0.02769 0.04926,-0.06568 0.0093,-0.01238 0.02189,-0.02189 0.03284,-0.03284 0.01095,-0.01095 0.02189,-0.02189 0.03284,-0.03284 0.0055,-0.0055 0.01213,-0.01 0.01642,-0.01642 0.0068,-0.01018 0.0096,-0.02266 0.01642,-0.03284 0.0086,-0.01288 0.02592,-0.01899 0.03284,-0.03284 0.0024,-0.0049 -0.0024,-0.01152 0,-0.01642 0.0035,-0.0069 0.01296,-0.0095 0.01642,-0.01642 0.02416,-0.04832 -0.03804,0.02162 0.01642,-0.03284 0.0055,-0.0055 0.01213,-0.01 0.01642,-0.01642 0.02021,-0.03031 0.02905,-0.0682 0.04926,-0.09852 0.0026,-0.0038 0.02895,-0.02031 0.01642,-0.03284 -0.02254,-0.02254 -0.01642,0.02898 -0.01642,0.03284"
   id="path3724"
   inkscape:connector-curvature="0" /><path
   style="fill:none;stroke:#000000;stroke-width:1px;stroke-linecap:butt;stroke-linejoin:miter;stroke-opacity:1"
   d="m 11.690678,16.215042 c 0.03284,0.02737 0.06657,0.0537 0.09852,0.0821 0.09251,0.08223 0.01148,0.01377 0.0821,0.09852 0.01487,0.01784 0.03284,0.03284 0.04926,0.04926 0.01642,0.01642 0.03284,0.03284 0.04926,0.04926 0.01095,0.01095 0.02075,0.02317 0.03284,0.03284 0.01541,0.01233 0.03385,0.02051 0.04926,0.03284 0.01209,0.0097 0.02045,0.02355 0.03284,0.03284 0.0098,0.0073 0.02305,0.0091 0.03284,0.01642 0.02023,0.01517 0.04477,0.05174 0.06568,0.06568 0.01018,0.0068 0.02305,0.0091 0.03284,0.01642 0.02477,0.01858 0.04091,0.0471 0.06568,0.06568 0.0098,0.0073 0.02305,0.0091 0.03284,0.01642 0.01238,0.0093 0.02189,0.02189 0.03284,0.03284 0.01095,0.01095 0.02189,0.02189 0.03284,0.03284 0.04378,0.04378 0.08757,0.08757 0.131356,0.131356 0.01095,0.01095 0.02045,0.02355 0.03284,0.03284 0.0098,0.0073 0.02305,0.0091 0.03284,0.01642 0.02477,0.01858 0.04091,0.0471 0.06568,0.06568 0.01958,0.01469 0.04531,0.01926 0.06568,0.03284 0.03772,0.02515 -0.007,0.0094 0.03284,0.04926 0.0087,0.0087 0.02305,0.0091 0.03284,0.01642 0.118105,0.08858 -0.03465,-0.01823 0.04926,0.06568 0.0087,0.0087 0.02266,0.0096 0.03284,0.01642 0.01288,0.0086 0.01996,0.02425 0.03284,0.03284 0.01018,0.0068 0.02266,0.0096 0.03284,0.01642 0.01288,0.0086 0.01815,0.02794 0.03284,0.03284 0.01038,0.0035 0.02305,-0.0049 0.03284,0 0.01517,0.0076 0.06608,0.07008 0.0821,0.0821 0.01958,0.01469 0.0461,0.01815 0.06568,0.03284 0.01239,0.0093 0.02046,0.02355 0.03284,0.03284 0.0098,0.0073 0.02189,0.01095 0.03284,0.01642 0.01095,0.0055 0.02123,0.01255 0.03284,0.01642 0.0052,0.0017 0.01123,-0.0017 0.01642,0 0.01161,0.0039 0.02123,0.01255 0.03284,0.01642 0.0052,0.0017 0.01255,-0.0039 0.01642,0 0.01273,0.01273 -0.01413,0.02872 -0.01642,0.03284 -0.02377,0.04278 -0.04377,0.08755 -0.06565,0.131329"
   id="path3726"
   inkscape:connector-curvature="0" /></svg>