<?xml version="1.0" encoding="UTF-8" standalone="no"?>
<!-- Generator: Adobe Illustrator 23.1.1, SVG Export Plug-In . SVG Version: 6.00 Build 0)  -->

<svg
   xmlns:dc="http://purl.org/dc/elements/1.1/"
   xmlns:cc="http://creativecommons.org/ns#"
   xmlns:rdf="http://www.w3.org/1999/02/22-rdf-syntax-ns#"
   xmlns:svg="http://www.w3.org/2000/svg"
   xmlns="http://www.w3.org/2000/svg"
   xmlns:sodipodi="http://sodipodi.sourceforge.net/DTD/sodipodi-0.dtd"
   xmlns:inkscape="http://www.inkscape.org/namespaces/inkscape"
   version="1.1"
   id="Layer_1"
   x="0px"
   y="0px"
   width="24px"
   height="31px"
   viewBox="0 0 24 30"
   style="enable-background:new 0 0 24 30;"
   xml:space="preserve"
   sodipodi:docname="ic-nav-leasing.svg"
   inkscape:version="0.92.3 (2405546, 2018-03-11)"><metadata
   id="metadata15"><rdf:RDF><cc:Work
       rdf:about=""><dc:format>image/svg+xml</dc:format><dc:type
         rdf:resource="http://purl.org/dc/dcmitype/StillImage" /><dc:title>Cold Staking</dc:title></cc:Work></rdf:RDF></metadata><defs
   id="defs13" /><sodipodi:namedview
   pagecolor="#ffffff"
   bordercolor="#666666"
   borderopacity="1"
   objecttolerance="10"
   gridtolerance="10"
   guidetolerance="10"
   inkscape:pageopacity="0"
   inkscape:pageshadow="2"
   inkscape:window-width="1728"
   inkscape:window-height="1441"
   id="namedview11"
   showgrid="false"
   inkscape:zoom="30.451613"
   inkscape:cx="10.008912"
   inkscape:cy="17.599773"
   inkscape:window-x="0"
   inkscape:window-y="48"
   inkscape:window-maximized="0"
   inkscape:current-layer="Layer_1" />
<style
   type="text/css"
   id="style2">
	.st0{fill:#938DA5;}
</style>
	<title
   id="title4">Cold Staking</title>
	<desc
   id="desc6">Created with Sketch.</desc>
	<path
   class="st0"
   d="M21.7,22.1l-3-1.6l2.7-0.5c0.5,0,0.8-0.5,0.5-1.1c0-0.5-0.5-0.8-1.1-0.5l-4.3,1.1l-3-1.6l3-1.6l4.3,1.1h0.3  c0.3,0,0.8-0.3,0.8-0.5c0-0.5-0.3-0.8-0.5-1.1l-2.7-0.5l3-1.6c0.5-0.3,0.5-0.8,0.3-1.1c-0.3-0.3-0.8-0.5-1.1-0.3l-3,1.6l0.8-2.4  c0-0.5-0.3-0.8-0.5-1.1c-0.5,0-1.1,0.3-1.1,0.5L16,14.8l-3,1.6v-3.3l3.3-3c0.3-0.3,0.3-0.8,0-1.1c-0.3-0.3-0.8-0.3-1.4,0L13.1,11  V7.8c0-0.5-0.3-0.8-0.8-0.8c-0.5,0-0.8,0.3-0.8,0.8V11L9.3,8.9C9,8.6,8.5,8.6,7.9,8.9c-0.3,0.3-0.3,0.8,0,1.1l3.3,3v3.3l-3-1.6  l-1.1-4.1c0-0.5-0.5-0.8-1.1-0.5c-0.5,0-0.8,0.5-0.5,1.1l0.8,2.4l-3-1.6c-0.5-0.3-1.1,0-1.1,0.3c-0.3,0.3,0,0.8,0.3,1.1l3,1.6  l-2.7,0.5c-0.5,0-0.8,0.5-0.5,1.1C2.2,16.7,2.8,17,3,17h0.3l4.3-1.1l3,1.6l-3,1.6l-4.3-1.1c-0.5,0-1.1,0.3-1.1,0.5  c0,0.5,0.3,0.8,0.5,1.1l2.7,0.5l-3,1.6c-0.5,0.3-0.5,0.8-0.3,1.1c0.3,0.3,0.5,0.5,0.8,0.5s0.3,0,0.5,0l2.7-1.6l-0.8,2.7  c0,0.5,0.3,0.8,0.5,1.1h0.3c0.3,0,0.8-0.3,0.8-0.5l1.1-4.1l3-1.6v3.3l-3.3,3c-0.3,0.3-0.3,0.8,0,1.1s0.8,0.3,1.4,0l1.9-1.9v3.3  c0,0.5,0.3,0.8,0.8,0.8c0.5,0,0.8-0.3,0.8-0.8v-3.3l1.9,1.9C15,27,15,27,15.2,27c0.3,0,0.5,0,0.5-0.3c0.3-0.3,0.3-0.8,0-1.1l-3.3-3  v-3.5l3,1.6l1.1,4.1c0,0.3,0.5,0.5,0.8,0.5h0.3c0.5,0,0.8-0.5,0.5-1.1v-2.4l3,1.6c0.3,0,0.3,0,0.5,0c0.3,0,0.5-0.3,0.8-0.5  C22.6,23,22.3,22.4,21.7,22.1z"
   id="path8" />
<path
   style="fill:none;stroke:#000000;stroke-width:1px;stroke-linecap:butt;stroke-linejoin:miter;stroke-opacity:1"
   d="m 12.150424,15.755297 1.050847,1.313559"
   id="path21"
   inkscape:connector-curvature="0" /><path
   style="fill:none;stroke:#000000;stroke-width:1px;stroke-linecap:butt;stroke-linejoin:miter;stroke-opacity:1"
   d="m 13.201271,17.068856 c 0.01095,0.109463 0.03284,0.218381 0.03284,0.32839 0,0.01548 -0.02189,0.02189 -0.03284,0.03284 -0.03284,0.03284 -0.06568,0.06568 -0.09852,0.09852 -0.02189,0.02189 -0.0471,0.04091 -0.06568,0.06568 -0.01469,0.01958 -0.01815,0.0461 -0.03284,0.06568 -0.01858,0.02477 -0.04378,0.04378 -0.06568,0.06568 -0.04378,0.04378 -0.083,0.09267 -0.131356,0.131356 -0.03082,0.02465 -0.0677,0.04102 -0.09852,0.06568 -0.04835,0.03868 -0.08379,0.09172 -0.131355,0.131356 -0.04205,0.03504 -0.08682,0.0667 -0.131356,0.09852 -0.06423,0.04588 -0.135396,0.08205 -0.197034,0.131356 -0.04835,0.03868 -0.08182,0.0942 -0.131356,0.131356 -0.01958,0.01469 -0.04837,0.01553 -0.06568,0.03284 -0.01731,0.01731 -0.01553,0.04837 -0.03284,0.06568 -0.01731,0.01731 -0.04837,0.01553 -0.06568,0.03284 -0.0077,0.0077 0.0049,0.02305 0,0.03284 -0.01385,0.02769 -0.05183,0.03799 -0.06568,0.06568 -0.0049,0.0098 0.0077,0.0251 0,0.03284 -0.0077,0.0077 -0.0251,-0.0077 -0.03284,0 -0.0077,0.0077 0.0035,0.02245 0,0.03284 -0.0077,0.02322 -0.01926,0.04531 -0.03284,0.06568 -0.03012,0.04518 -0.05066,0.03377 -0.09852,0.06568 -0.06087,0.04058 -0.003,0.03284 -0.06568,0.03284"
   id="path23"
   inkscape:connector-curvature="0" /><path
   style="fill:none;stroke:#000000;stroke-width:1px;stroke-linecap:butt;stroke-linejoin:miter;stroke-opacity:1"
   d="m 10.836864,16.773305 c -0.01763,0.152353 0.140716,0.168848 0.197034,0.262712 0.01781,0.02968 0.01998,0.06638 0.03284,0.09852 0.03378,0.08444 0.08505,0.152698 0.131356,0.229873 0.01259,0.02099 0.01815,0.0461 0.03284,0.06568 0.01858,0.02477 0.0471,0.04091 0.06568,0.06568 0.07448,0.09931 -0.0088,0.03205 0.06568,0.131356 0.01858,0.02477 0.0471,0.04091 0.06568,0.06568 0.01469,0.01958 0.01815,0.0461 0.03284,0.06568 0.01858,0.02477 0.0471,0.04091 0.06568,0.06568 0.01599,0.02133 0.08968,0.170534 0.09852,0.197033 0.0035,0.01038 0,0.02189 0,0.03284 0.01095,0.03284 0.01998,0.06638 0.03284,0.09852 0.0091,0.02273 0.0269,0.04193 0.03284,0.06568 0.0053,0.02124 -0.0069,0.04491 0,0.06568 0.0049,0.01469 0.02794,0.01815 0.03284,0.03284 0.0069,0.02077 0,0.04379 0,0.06568 0,0.01095 -0.0049,0.02305 0,0.03284 0.0069,0.01385 0.02592,0.01899 0.03284,0.03284 0.0065,0.01302 -0.0067,0.0918 0,0.09852 0.0077,0.0077 0.03284,-0.01095 0.03284,0 0,0.01095 -0.02305,-0.0049 -0.03284,0 -0.03941,0.0197 -0.05911,0.07881 -0.09852,0.09852 -0.0098,0.0049 -0.02305,-0.0049 -0.03284,0 -0.01385,0.0069 -0.02189,0.02189 -0.03284,0.03284 -0.01095,0.01095 -0.02592,0.01899 -0.03284,0.03284 -0.01739,0.03478 0.01739,0.0309 0,0.06568 -0.0069,0.01385 -0.03284,0.01736 -0.03284,0.03284 0,0.01095 0.02189,0 0.03284,0 0.04378,0 0.08757,0 0.131356,0 0.01095,0 0.03773,-0.0098 0.03284,0 -0.01385,0.0277 -0.0438,0.0438 -0.0657,0.06571"
   id="path25"
   inkscape:connector-curvature="0" /><path
   style="fill:none;stroke:#000000;stroke-width:1px;stroke-linecap:butt;stroke-linejoin:miter;stroke-opacity:1"
   d="m 12.150424,15.755297 c -0.04378,0.153248 -0.06857,0.313251 -0.131356,0.459745 -0.0086,0.02012 -0.0461,-0.0098 -0.06568,0 -0.02769,0.01385 -0.04091,0.0471 -0.06568,0.06568 -0.01958,0.01469 -0.04378,0.02189 -0.06568,0.03284 -0.06568,0.03284 -0.131356,0.06568 -0.197034,0.09852 -0.02189,0.01095 -0.04378,0.02189 -0.06568,0.03284 -0.02189,0.01095 -0.04837,0.01553 -0.06568,0.03284 -0.0077,0.0077 0.0077,0.0251 0,0.03284 -0.0021,0.0021 -0.125239,0.0616 -0.131356,0.06568 -0.03864,0.02576 -0.05987,0.07276 -0.09852,0.09852 -0.0091,0.0061 -0.02245,-0.0035 -0.03284,0 -0.02322,0.0077 -0.04531,0.01926 -0.06568,0.03284 -0.02576,0.01717 -0.03798,0.05183 -0.06568,0.06568 -0.0098,0.0049 -0.02305,-0.0049 -0.03284,0 -0.02769,0.01385 -0.03798,0.05183 -0.06568,0.06568 -0.0098,0.0049 -0.02305,-0.0049 -0.03284,0 -0.02509,0.01254 -0.07628,0.09111 -0.09852,0.09852 -0.02077,0.0069 -0.0461,-0.0098 -0.06568,0 -0.0098,0.0049 0,0.02189 0,0.03284 -0.02189,0 -0.04491,-0.0069 -0.06568,0 -0.01469,0.0049 -0.01899,0.02592 -0.03284,0.03284 -0.0098,0.0049 -0.03827,0.0095 -0.03284,0 0.04672,-0.08176 0.109463,-0.153249 0.164194,-0.229873"
   id="path27"
   inkscape:connector-curvature="0" /></svg>