<?xml version="1.0" encoding="UTF-8" standalone="no"?>
<svg
   xmlns:dc="http://purl.org/dc/elements/1.1/"
   xmlns:cc="http://creativecommons.org/ns#"
   xmlns:rdf="http://www.w3.org/1999/02/22-rdf-syntax-ns#"
   xmlns:svg="http://www.w3.org/2000/svg"
   xmlns="http://www.w3.org/2000/svg"
   xmlns:sodipodi="http://sodipodi.sourceforge.net/DTD/sodipodi-0.dtd"
   xmlns:inkscape="http://www.inkscape.org/namespaces/inkscape"
   width="27"
   height="38"
   viewBox="0 0 27 38"
   version="1.1"
   id="svg4"
   sodipodi:docname="ic-nav-leasing-active.svg"
   style="fill:none"
   inkscape:version="0.92.3 (2405546, 2018-03-11)">
  <metadata
     id="metadata10">
    <rdf:RDF>
      <cc:Work
         rdf:about="">
        <dc:format>image/svg+xml</dc:format>
        <dc:type
           rdf:resource="http://purl.org/dc/dcmitype/StillImage" />
        <dc:title></dc:title>
      </cc:Work>
    </rdf:RDF>
  </metadata>
  <defs
     id="defs8" />
  <sodipodi:namedview
     pagecolor="#ffffff"
     bordercolor="#666666"
     borderopacity="1"
     objecttolerance="10"
     gridtolerance="10"
     guidetolerance="10"
     inkscape:pageopacity="0"
     inkscape:pageshadow="2"
     inkscape:window-width="1024"
     inkscape:window-height="703"
     id="namedview6"
     showgrid="false"
     inkscape:zoom="7.8666667"
     inkscape:cx="13.5"
     inkscape:cy="15"
     inkscape:window-x="0"
     inkscape:window-y="0"
     inkscape:window-maximized="1"
     inkscape:current-layer="svg4" />
  <path
     d="m 16.7353,30.9032 c 0.8037,0.0042 1.5779,-0.3408 2.1617,-0.9633 0.5838,-0.6225 0.9322,-1.4747 0.9728,-2.3793 0,-0.0151 0,-0.0302 0,-0.0483 l 3.0409,-3.8493 c 0.3087,-0.4035 0.7435,-0.6574 1.2141,-0.7091 0.4705,-0.0517 0.9406,0.1029 1.3127,0.4315 0.1842,0.1717 0.3361,0.3832 0.4466,0.6221 0.1105,0.2389 0.1775,0.5003 0.1969,0.7688 0.0195,0.2685 -0.009,0.5387 -0.0836,0.7946 -0.0747,0.2559 -0.194,0.4924 -0.3511,0.6955 L 19.5754,34.11 c -0.4001,0.5168 -0.8938,0.9309 -1.4479,1.2145 -0.5541,0.2836 -1.1557,0.4301 -1.7643,0.4296 H 7.23804 L 5.65338,37.54 0,31.3285 4.04998,26.8034 c 0.82245,-0.9212 1.85843,-1.5629 2.98936,-1.8515 1.13094,-0.2887 2.31113,-0.2126 3.40546,0.2194 l 0.8887,0.353 h 5.4741 c 0.2309,-10e-5 0.4595,0.052 0.6723,0.1534 0.2127,0.1014 0.4051,0.2499 0.5659,0.4368 0.1608,0.1868 0.2867,0.4082 0.3701,0.6509 0.0834,0.2427 0.1227,0.5019 0.1155,0.762 -0.0295,0.5116 -0.2324,0.9908 -0.5668,1.3384 -0.3343,0.3476 -0.7745,0.537 -1.2293,0.529 h -3.2844 c -0.1775,0 -0.3477,0.0794 -0.4732,0.2209 -0.1255,0.1414 -0.196,0.3332 -0.196,0.5333 0,0.2 0.0705,0.3918 0.196,0.5333 0.1255,0.1414 0.2957,0.2209 0.4732,0.2209 z M 13.4214,16.47103 c 0.4418,0.28218 0.9027,0.52428 1.3786,0.72402 0.2034,0.0905 0.4068,0.18402 0.6076,0.28358 0.2397,0.11538 0.464,0.26767 0.6665,0.45251 0.1179,0.09096 0.2111,0.21706 0.2691,0.36426 0.058,0.1471 0.0786,0.3096 0.0594,0.4692 -0.0191,0.1596 -0.0773,0.31 -0.1679,0.4345 -0.0906,0.1245 -0.2101,0.2182 -0.3453,0.2706 -0.3631,0.1721 -0.7608,0.2305 -1.151,0.1689 -0.6439,-0.0795 -1.2697,-0.2901 -1.847,-0.6214 -0.1206,-0.084 -0.2574,-0.1337 -0.3988,-0.1448 -0.3212,0 -0.4203,0.365 -0.4765,0.5611 -0.1044,0.3771 -0.1981,0.7572 -0.2891,1.1373 -0.1499,0.6214 -0.0562,0.8537 0.4604,1.1373 0.5677,0.2905 1.1702,0.4857 1.7881,0.5792 0.0982,0.0122 0.195,0.0355 0.2891,0.0694 0.0203,0.1162 0.0284,0.2347 0.0241,0.353 v 0.7451 c -0.0054,0.0951 0.0071,0.1904 0.0367,0.2797 0.0296,0.0892 0.0756,0.1704 0.135,0.2382 0.0594,0.0678 0.1309,0.1207 0.2097,0.1552 0.0788,0.0345 0.1632,0.0498 0.2477,0.0449 h 0.455 0.5354 c 0.0825,0.0051 0.165,-0.0098 0.2419,-0.0438 0.0769,-0.034 0.1464,-0.0863 0.2038,-0.1532 0.0574,-0.067 0.1013,-0.1471 0.1288,-0.2349 0.0275,-0.0878 0.0378,-0.1813 0.0304,-0.274 0,-0.1116 0,-0.2263 0,-0.3379 0,-0.2293 0,-0.4616 0,-0.6908 0,-0.2293 0.0482,-0.3017 0.2677,-0.3711 0.7094,-0.2099 1.3417,-0.6671 1.8068,-1.3063 0.3001,-0.4079 0.5167,-0.8855 0.6342,-1.3986 0.1175,-0.5131 0.1331,-1.0491 0.0457,-1.56983 -0.0983,-0.55504 -0.3039,-1.07881 -0.6024,-1.53403 -0.2984,-0.45521 -0.6822,-0.83066 -1.1241,-1.09959 -0.5033,-0.29927 -1.0217,-0.5652 -1.5525,-0.79643 L 15.785,14.26881 c -0.3109,-0.14056 -0.6028,-0.32942 -0.8672,-0.56112 -0.0915,-0.07464 -0.1643,-0.17474 -0.2112,-0.29054 -0.0469,-0.11579 -0.0664,-0.24332 -0.0565,-0.37013 0.0213,-0.12954 0.0723,-0.25055 0.1479,-0.35107 0.0756,-0.10053 0.1732,-0.17709 0.283,-0.22211 0.1603,-0.07168 0.3309,-0.10952 0.5033,-0.11162 0.7079,-0.04835 1.415,0.10957 2.0531,0.45855 0.6585,0.35899 0.803,-0.18101 0.8565,-0.41028 0.0884,-0.30168 0.166,-0.60335 0.2436,-0.92011 l 0.091,-0.36201 c 0.0278,-0.08507 0.0401,-0.17557 0.0362,-0.2661 -0.004,-0.09053 -0.024,-0.17925 -0.059,-0.26087 C 18.7708,10.51977 18.7216,10.44691 18.6611,10.38715 18.6007,10.32738 18.5302,10.28193 18.4538,10.25351 18.0003,10.02799 17.5224,9.87078 17.0324,9.78592 16.5907,9.70748 16.5907,9.70748 16.5907,9.2067 16.5907,8.153854 16.5185,8 15.6057,8 h -0.4925 c -0.5354,0.0181 -0.6799,0.196089 -0.6933,0.787372 0,0.13877 0,0.274528 0,0.410278 v 0.22022 c 0,0.44346 0,0.44346 -0.3908,0.60335 -1.4241,0.58223 -2.1897,1.68033 -2.2753,3.26111 -0.0776,1.33038 0.4711,2.38021 1.6676,3.1887 z"
     id="path2"
     inkscape:connector-curvature="0"
     style="fill:#ffffff" />
</svg>
