<?xml version="1.0" encoding="UTF-8" standalone="no"?>
<svg
   xmlns:dc="http://purl.org/dc/elements/1.1/"
   xmlns:cc="http://creativecommons.org/ns#"
   xmlns:rdf="http://www.w3.org/1999/02/22-rdf-syntax-ns#"
   xmlns:svg="http://www.w3.org/2000/svg"
   xmlns="http://www.w3.org/2000/svg"
   xmlns:sodipodi="http://sodipodi.sourceforge.net/DTD/sodipodi-0.dtd"
   xmlns:inkscape="http://www.inkscape.org/namespaces/inkscape"
   width="20"
   height="32"
   viewBox="0 0 20 32"
   version="1.1"
   id="svg6"
   sodipodi:docname="ic-nav-address.svg"
   style="fill:none"
   inkscape:version="0.92.3 (2405546, 2018-03-11)">
  <metadata
     id="metadata12">
    <rdf:RDF>
      <cc:Work
         rdf:about="">
        <dc:format>image/svg+xml</dc:format>
        <dc:type
           rdf:resource="http://purl.org/dc/dcmitype/StillImage" />
        <dc:title></dc:title>
      </cc:Work>
    </rdf:RDF>
  </metadata>
  <defs
     id="defs10" />
  <sodipodi:namedview
     pagecolor="#ffffff"
     bordercolor="#666666"
     borderopacity="1"
     objecttolerance="10"
     gridtolerance="10"
     guidetolerance="10"
     inkscape:pageopacity="0"
     inkscape:pageshadow="2"
     inkscape:window-width="1024"
     inkscape:window-height="703"
     id="namedview8"
     showgrid="false"
     inkscape:zoom="9.8333333"
     inkscape:cx="10"
     inkscape:cy="12"
     inkscape:window-x="0"
     inkscape:window-y="0"
     inkscape:window-maximized="1"
     inkscape:current-layer="svg6" />
  <path
     d="M 0,10.33812 V 29.6628 c 0,1.0359 0.826584,1.8755 1.84569,1.8755 H 3.07692 V 8.461426 H 1.84569 C 0.826584,8.461426 0,9.30104 0,10.33812 Z"
     id="path2"
     inkscape:connector-curvature="0"
     style="fill:#ffffff" />
  <path
     d="M 18.1728,8.461426 H 5.38452 V 31.5383 H 18.1728 c 1.0097,0 1.8271,-0.8401 1.8271,-1.8754 V 10.33807 c 0,-1.03705 -0.818,-1.876644 -1.8271,-1.876644 z M 12.6343,23.3562 H 7.83116 c 0,-2.4877 3.22874,-3.0402 3.22874,-3.0402 0.2276,-0.1488 0.3833,-0.5115 0.4889,-0.8994 -0.8209,-0.6181 -1.3879,-1.86549 -1.3879,-3.05311 0,-1.66279 1.1066,-2.57153 2.4728,-2.57153 1.3663,0 2.4735,0.90874 2.4735,2.57153 0,1.18762 -0.567,2.43501 -1.389,3.05311 0.1066,0.3879 0.2612,0.7506 0.4894,0.8994 0,0 3.2293,0.5525 3.2293,3.0402 z"
     id="path4"
     inkscape:connector-curvature="0"
     style="fill:#ffffff" />
</svg>
