<svg width="20" height="21" viewBox="0 0 20 21" fill="none" xmlns="http://www.w3.org/2000/svg">
<path d="M18.8427 10.0801L10.1471 0.28014C9.98452 0.100578 9.76598 0 9.53837 0C9.31076 0 9.09222 0.100578 8.92968 0.28014L0.234025 10.0801C0.121952 10.2154 0.0461511 10.3836 0.0153924 10.5654C-0.0153664 10.7472 0.000174227 10.9351 0.0602163 11.1073C0.120258 11.2796 0.222348 11.4292 0.354672 11.5387C0.486995 11.6483 0.644145 11.7134 0.807938 11.7265H1.86881V19.5665C1.86881 19.8265 1.96042 20.0757 2.1235 20.2595C2.28657 20.4433 2.50775 20.5465 2.73837 20.5465H7.60794V15.9307C7.60794 15.6708 7.69955 15.4216 7.86263 15.2378C8.0257 15.054 8.24688 14.9507 8.4775 14.9507H10.5819C10.8125 14.9507 11.0337 15.054 11.1967 15.2378C11.3598 15.4216 11.4514 15.6708 11.4514 15.9307V20.5367H16.321C16.5516 20.5367 16.7728 20.4335 16.9359 20.2497C17.0989 20.0659 17.1905 19.8166 17.1905 19.5567V11.7167H18.2949C18.4548 11.6973 18.6068 11.6283 18.734 11.5174C18.8612 11.4064 18.9586 11.2579 19.0153 11.0883C19.0721 10.9187 19.086 10.7347 19.0556 10.5567C19.0251 10.3787 18.9514 10.2138 18.8427 10.0801Z" fill="white"/>
</svg>
