<svg width="27" height="27" viewBox="0 0 27 27" fill="none" xmlns="http://www.w3.org/2000/svg">
<g clip-path="url(#clip0)">
<path d="M26.847 15.8995C26.7627 15.8152 26.6484 15.7679 26.5292 15.7679H22.5107C21.6191 15.7703 20.8129 16.2989 20.4555 17.1158H18.9793C22.3192 14.7332 23.7366 10.4655 22.4857 6.55829C21.2349 2.65108 17.6026 0 13.5 0C9.39748 0 5.76513 2.65113 4.51429 6.55834C3.26345 10.4656 4.68087 14.7333 8.02069 17.1158H6.54455C6.18709 16.299 5.38096 15.7703 4.48935 15.768H0.470797C0.351644 15.7679 0.237362 15.8153 0.153056 15.8995C0.068803 15.9838 0.0214844 16.0981 0.0214844 16.2173V23.8551C0.0235184 25.5912 1.43039 26.9981 3.16646 27.0001H23.8335C25.5695 26.9981 26.9764 25.5912 26.9784 23.8551V16.2172C26.9786 16.0981 26.9312 15.9837 26.847 15.8995ZM4.96366 9.44992C4.96366 4.7354 8.78555 0.91356 13.5 0.91356C18.2145 0.91356 22.0364 4.73545 22.0364 9.44992C22.0364 14.1644 18.2145 17.9863 13.5 17.9863C8.78775 17.9809 4.96901 14.1622 4.96366 9.44992ZM9.56604 18.0144C10.7987 18.5866 12.1411 18.8836 13.5 18.8849C14.859 18.8836 16.2014 18.5865 17.434 18.0144H20.182L19.7176 19.7167C19.5569 20.3026 19.0247 20.7092 18.4171 20.71H8.58295C7.97535 20.7091 7.44318 20.3026 7.28249 19.7167L6.81808 18.0144H9.56604ZM26.08 23.855C26.0785 25.0951 25.0736 26.1 23.8336 26.1014H3.16652C1.92643 26.1 0.921556 25.0951 0.920111 23.855V16.6665H4.48935C5.09694 16.6674 5.62912 17.0739 5.78981 17.6598L6.4155 19.9532C6.68356 20.9296 7.57042 21.6069 8.58295 21.6086H18.4171C19.4297 21.6069 20.3165 20.9296 20.5846 19.9532L21.2103 17.6598C21.371 17.0739 21.9031 16.6674 22.5107 16.6665H26.08V23.855Z" fill="#262642"/>
<path d="M17.9927 22.5073H9.00701C8.2626 22.5073 7.65918 23.1108 7.65918 23.8552C7.65918 24.5996 8.26265 25.203 9.00701 25.203H17.9927C18.7371 25.203 19.3405 24.5995 19.3405 23.8552C19.3405 23.1108 18.737 22.5073 17.9927 22.5073ZM17.9927 24.3045H9.00701C8.75886 24.3045 8.55775 24.1033 8.55775 23.8552C8.55775 23.6071 8.75891 23.406 9.00701 23.406H17.9927C18.2408 23.406 18.4419 23.6071 18.4419 23.8552C18.4419 24.1033 18.2408 24.3045 17.9927 24.3045Z" fill="#262642"/>
<path d="M14.2242 16.0207L17.3196 12.2374C17.5392 11.9686 17.5845 11.5973 17.4357 11.2835C17.287 10.9698 16.9709 10.7698 16.6237 10.7698H15.3254V3.58119C15.3248 3.08515 14.9229 2.68321 14.4269 2.68262H12.6297C12.1337 2.68321 11.7317 3.08515 11.7311 3.58119V10.7697H10.4329C10.0857 10.7698 9.76962 10.9697 9.62087 11.2835C9.47211 11.5972 9.51734 11.9685 9.73702 12.2373L12.8329 16.021C13.0037 16.2294 13.259 16.3503 13.5286 16.3503C13.7981 16.3503 14.0534 16.2292 14.2242 16.0207ZM10.4329 11.6683H11.7311C12.2272 11.6677 12.6291 11.2658 12.6297 10.7697V3.58119H14.4269V10.7697C14.4275 11.2658 14.8294 11.6677 15.3254 11.6683L16.6259 11.6657L16.6237 11.6683L13.5283 15.4516L10.4329 11.6683Z" fill="#262642"/>
</g>
<defs>
<clipPath id="clip0">
<rect width="27" height="27" fill="white"/>
</clipPath>
</defs>
</svg>
