<svg width="27" height="27" viewBox="0 0 27 27" fill="none" xmlns="http://www.w3.org/2000/svg">
<g clip-path="url(#clip0)">
<path d="M26.846 15.8995C26.7618 15.8152 26.6475 15.7679 26.5283 15.7679H22.5097C21.6181 15.7703 20.812 16.2989 20.4545 17.1158H18.9784C22.3182 14.7332 23.7356 10.4655 22.4848 6.55829C21.2339 2.65108 17.6016 0 13.499 0C9.39651 0 5.76416 2.65113 4.51332 6.55834C3.26248 10.4656 4.6799 14.7333 8.01971 17.1158H6.54358C6.18612 16.299 5.37999 15.7703 4.48837 15.768H0.469821C0.350668 15.7679 0.236386 15.8153 0.152079 15.8995C0.0678265 15.9838 0.0205078 16.0981 0.0205078 16.2173V23.8551C0.0225419 25.5912 1.42942 26.9981 3.16548 27.0001H23.8325C25.5686 26.9981 26.9754 25.5912 26.9775 23.8551V16.2172C26.9776 16.0981 26.9303 15.9837 26.846 15.8995ZM4.96268 9.44992C4.96268 4.7354 8.78457 0.91356 13.499 0.91356C18.2135 0.91356 22.0354 4.73545 22.0354 9.44992C22.0354 14.1644 18.2135 17.9863 13.499 17.9863C8.78677 17.9809 4.96804 14.1622 4.96268 9.44992ZM9.56506 18.0144C10.7977 18.5866 12.1401 18.8836 13.499 18.8849C14.858 18.8836 16.2004 18.5865 17.433 18.0144H20.181L19.7166 19.7167C19.5559 20.3026 19.0238 20.7092 18.4162 20.71H8.58197C7.97438 20.7091 7.4422 20.3026 7.28151 19.7167L6.8171 18.0144H9.56506ZM26.079 23.855C26.0776 25.0951 25.0726 26.1 23.8326 26.1014H3.16554C1.92546 26.1 0.920579 25.0951 0.919134 23.855V16.6665H4.48837C5.09597 16.6674 5.62814 17.0739 5.78883 17.6598L6.41452 19.9532C6.68259 20.9296 7.56944 21.6069 8.58197 21.6086H18.4162C19.4287 21.6069 20.3156 20.9296 20.5836 19.9532L21.2093 17.6598C21.37 17.0739 21.9022 16.6674 22.5098 16.6665H26.079V23.855Z" fill="#262642"/>
<path d="M17.9927 22.5073H9.00701C8.2626 22.5073 7.65918 23.1108 7.65918 23.8552C7.65918 24.5996 8.26265 25.203 9.00701 25.203H17.9927C18.7371 25.203 19.3405 24.5995 19.3405 23.8552C19.3405 23.1108 18.737 22.5073 17.9927 22.5073ZM17.9927 24.3045H9.00701C8.75886 24.3045 8.55775 24.1033 8.55775 23.8552C8.55775 23.6071 8.75891 23.406 9.00701 23.406H17.9927C18.2408 23.406 18.4419 23.6071 18.4419 23.8552C18.4419 24.1033 18.2408 24.3045 17.9927 24.3045Z" fill="#262642"/>
<path d="M12.8315 3.01197L9.7361 6.79532C9.51642 7.06414 9.47119 7.43546 9.61994 7.74919C9.7687 8.06291 10.0848 8.26289 10.432 8.26295L11.7302 8.26295L11.7302 15.4515C11.7308 15.9476 12.1328 16.3495 12.6288 16.3501L14.4259 16.3501C14.922 16.3495 15.3239 15.9476 15.3245 15.4515L15.3245 8.263L16.6228 8.263C16.97 8.26295 17.286 8.06297 17.4348 7.74924C17.5836 7.43551 17.5383 7.06419 17.3186 6.79537L14.2228 3.01176C14.0519 2.80327 13.7966 2.68245 13.5271 2.68245C13.2576 2.68245 13.0023 2.80348 12.8315 3.01197ZM16.6228 7.36443L15.3245 7.36443C14.8285 7.36502 14.4265 7.76696 14.4259 8.263L14.4259 15.4515L12.6288 15.4515L12.6288 8.263C12.6282 7.76696 12.2263 7.36502 11.7302 7.36443L10.4298 7.36705L10.432 7.36443L13.5274 3.58108L16.6228 7.36443Z" fill="#262642"/>
</g>
<defs>
<clipPath id="clip0">
<rect width="27" height="27" fill="white"/>
</clipPath>
</defs>
</svg>
