<?xml version="1.0" encoding="UTF-8" standalone="no"?>
<svg
   xmlns:dc="http://purl.org/dc/elements/1.1/"
   xmlns:cc="http://creativecommons.org/ns#"
   xmlns:rdf="http://www.w3.org/1999/02/22-rdf-syntax-ns#"
   xmlns:svg="http://www.w3.org/2000/svg"
   xmlns="http://www.w3.org/2000/svg"
   xmlns:sodipodi="http://sodipodi.sourceforge.net/DTD/sodipodi-0.dtd"
   xmlns:inkscape="http://www.inkscape.org/namespaces/inkscape"
   width="24"
   height="12"
   viewBox="0 0 24 12"
   version="1.1"
   id="svg4"
   sodipodi:docname="ic-update-red-hover.svg"
   inkscape:version="0.92.3 (2405546, 2018-03-11)"
   style="fill:none">
  <metadata
     id="metadata10">
    <rdf:RDF>
      <cc:Work
         rdf:about="">
        <dc:format>image/svg+xml</dc:format>
        <dc:type
           rdf:resource="http://purl.org/dc/dcmitype/StillImage" />
        <dc:title></dc:title>
      </cc:Work>
    </rdf:RDF>
  </metadata>
  <defs
     id="defs8" />
  <sodipodi:namedview
     pagecolor="#ffffff"
     bordercolor="#666666"
     borderopacity="1"
     objecttolerance="10"
     gridtolerance="10"
     guidetolerance="10"
     inkscape:pageopacity="0"
     inkscape:pageshadow="2"
     inkscape:window-width="1920"
     inkscape:window-height="1015"
     id="namedview6"
     showgrid="false"
     inkscape:zoom="23.6"
     inkscape:cx="-7.6271186"
     inkscape:cy="5"
     inkscape:window-x="0"
     inkscape:window-y="0"
     inkscape:window-maximized="1"
     inkscape:current-layer="svg4" />
  <path
     d="M 22.236396,1.7625 C 21.680976,1.2036359 21.020352,0.76017115 20.292612,0.45767395 19.564872,0.15517554 18.784428,-3.7085605e-4 17.996244,6.6395638e-7 14.67918,6.6395638e-7 12,2.685 12,6 c 0,3.315 2.67918,6 5.996244,6 2.799252,0 5.133216,-1.9125 5.801124,-4.5 h -1.560972 c -0.309144,0.87714 -0.883044,1.636788 -1.642512,2.174124 -0.75948,0.537348 -1.6671,0.825912 -2.59764,0.825876 -2.484048,0 -4.502808,-2.0175 -4.502808,-4.5 0,-2.4825 2.01876,-4.5 4.502808,-4.5 1.24578,0 2.356476,0.5175 3.16698,1.335 L 18.746712,5.25 H 24 V 6.6395638e-7 Z"
     id="path2"
     style="opacity:0.4;fill:#ff1709;stroke-width:1.20000005"
     inkscape:connector-curvature="0" />
</svg>
