<?xml version="1.0" encoding="UTF-8"?>
<svg width="49px" height="60px" viewBox="0 0 49 60" version="1.1" xmlns="http://www.w3.org/2000/svg" xmlns:xlink="http://www.w3.org/1999/xlink">
    <!-- Generator: Sketch 58 (84663) - https://sketch.com -->
    <title>img-nav-logo</title>
    <desc>Created with Sketch.</desc>
    <g id="img-nav-logo" stroke="none" stroke-width="1" fill="none" fill-rule="evenodd">
        <path d="M24.5,6 C38.0309764,6 49,16.9690236 49,30.5 C49,44.0309764 38.0309764,55 24.5,55 C10.9690236,55 0,44.0309764 0,30.5 C0,16.9690236 10.9690236,6 24.5,6 Z M24.5,9 C12.6258779,9 3,18.6258779 3,30.5 C3,42.3741221 12.6258779,52 24.5,52 C36.3741221,52 46,42.3741221 46,30.5 C46,18.6258779 36.3741221,9 24.5,9 Z M24.5,11 C35.2695526,11 44,19.7304474 44,30.5 C44,41.2695526 35.2695526,50 24.5,50 C13.7304474,50 5,41.2695526 5,30.5 C5,19.7304474 13.7304474,11 24.5,11 Z M31.4831933,37.4705882 L17.5168067,37.4705882 L17.4239101,37.4789146 C17.1828206,37.5226737 17,37.7336843 17,37.987395 L17,37.987395 L17,40.4831933 L17.0083264,40.5760899 C17.0520855,40.8171794 17.2630961,41 17.5168067,41 L17.5168067,41 L31.4831933,41 L31.5760899,40.9916736 C31.8171794,40.9479145 32,40.7369039 32,40.4831933 L32,40.4831933 L32,37.987395 L31.9916736,37.8944983 C31.9479145,37.6534088 31.7369039,37.4705882 31.4831933,37.4705882 L31.4831933,37.4705882 Z M20.0876683,21 L18.3097665,21 L18.1758505,21.0064312 C17.5594234,21.0659684 17.0693638,21.5320395 17.0067622,22.1182924 L17.0067622,22.1182924 L17,22.2456532 L17,27.648546 L17.0053137,27.982955 C17.0690785,29.9674089 17.7067252,31.5555517 18.9182065,32.7306422 L18.9182065,32.7306422 L19.1254333,32.9226632 L19.3649774,33.1223085 C20.6606977,34.1572105 22.2471948,34.7138065 24.1413365,34.7757074 L24.1413365,34.7757074 L24.5000974,34.7815126 L24.858856,34.7757074 C26.7529736,34.7138065 28.3392671,34.1572105 29.6350147,33.1223084 L29.6350147,33.1223084 L29.8745667,32.9226632 L30.0807575,32.7316538 C31.2863501,31.5628684 31.9239968,29.9852635 31.9936503,28.0152653 L31.9936503,28.0152653 L32,27.6833018 L32,22.2344178 L31.9921467,22.1080377 C31.9249193,21.5263931 31.4366386,21.0652611 30.8234378,21.006362 L30.8234378,21.006362 L30.6902335,21 L28.9123966,21 L28.7784592,21.0064312 C28.1619456,21.0659684 27.6719797,21.5320395 27.6093909,22.1182924 L27.6093909,22.1182924 L27.6026302,22.2456532 L27.6026302,27.8577599 L27.5981274,28.067862 C27.5173386,29.9245177 26.3564936,30.8567568 24.6875925,30.9209772 L24.6875925,30.9209772 L24.5000974,30.9245435 L24.3172966,30.9209771 C22.6876227,30.8567568 21.4858667,29.9245178 21.4021057,28.067862 L21.4021057,28.067862 L21.3974347,27.8577599 L21.3974347,22.2456532 L21.3906725,22.1182924 C21.3280709,21.5320395 20.8380114,21.0659684 20.2215843,21.0064312 L20.2215843,21.0064312 L20.0876683,21 Z" id="Combined-Shape" fill="#FFFFFF"></path>
    </g>
</svg>