<?xml version="1.0" encoding="UTF-8" standalone="no"?>
<svg
   xmlns:dc="http://purl.org/dc/elements/1.1/"
   xmlns:cc="http://creativecommons.org/ns#"
   xmlns:rdf="http://www.w3.org/1999/02/22-rdf-syntax-ns#"
   xmlns:svg="http://www.w3.org/2000/svg"
   xmlns="http://www.w3.org/2000/svg"
   xmlns:sodipodi="http://sodipodi.sourceforge.net/DTD/sodipodi-0.dtd"
   xmlns:inkscape="http://www.inkscape.org/namespaces/inkscape"
   width="70"
   height="26"
   viewBox="0 0 70 26"
   version="1.1"
   id="svg52"
   sodipodi:docname="img-nav-logo.svg"
   style="fill:none"
   inkscape:version="0.92.3 (2405546, 2018-03-11)">
  <metadata
     id="metadata56">
    <rdf:RDF>
      <cc:Work
         rdf:about="">
        <dc:format>image/svg+xml</dc:format>
        <dc:type
           rdf:resource="http://purl.org/dc/dcmitype/StillImage" />
        <dc:title></dc:title>
      </cc:Work>
    </rdf:RDF>
  </metadata>
  <sodipodi:namedview
     pagecolor="#ffffff"
     bordercolor="#666666"
     borderopacity="1"
     objecttolerance="10"
     gridtolerance="10"
     guidetolerance="10"
     inkscape:pageopacity="0"
     inkscape:pageshadow="2"
     inkscape:window-width="1024"
     inkscape:window-height="703"
     id="namedview54"
     showgrid="false"
     inkscape:zoom="6.3043478"
     inkscape:cx="34.5"
     inkscape:cy="13"
     inkscape:window-x="0"
     inkscape:window-y="0"
     inkscape:window-maximized="1"
     inkscape:current-layer="svg52" />
  <path
     d="m 5.4734858,13.4341 h 3.601678 c 1.3660352,0 2.1859032,-0.6594 2.1859032,-1.807 0,-1.1477 -0.869407,-1.83143 -2.1859032,-1.83143 h -3.601678 z m 0,-6.81037 h 3.3255863 c 1.0919421,0 1.7868069,-0.56284 1.7868069,-1.46808 0,-0.95436 -0.6948648,-1.51728 -1.7868069,-1.51728 H 5.4734858 Z M 1.0296721,17.0725 V 0.0932617 H 9.448275 c 3.157643,0 5.377567,1.5039283 5.377567,4.2933583 0,1.64921 -0.961957,2.81357 -2.022751,3.29881 0.838912,0.19397 1.603495,0.6792 2.269644,1.47962 0.665946,0.80026 1.011375,1.79485 1.011375,3.03195 0,1.4552 -0.56741,2.644 -1.702132,3.5412 -1.110113,0.8976 -2.614871,1.3343 -4.4649387,1.3343 z"
     id="path2"
     inkscape:connector-curvature="0"
     style="clip-rule:evenodd;fill:#ffffff;fill-rule:evenodd;stroke-width:1.00221992" />
  <path
     d="m 22.048202,3.74118 h -4.3616 c -0.454412,0 -0.822742,-0.3501 -0.822742,-0.78174 V 0.816749 c 0,-0.431564 0.36833,-0.7815928 0.822742,-0.7815928 h 13.191674 c 0.454412,0 0.822641,0.3500288 0.822641,0.7815928 V 2.95944 c 0,0.43164 -0.368229,0.78174 -0.822641,0.78174 h -4.38631 V 16.2645 c 0,0.4318 -0.36833,0.7816 -0.82274,0.7816 h -2.798283 c -0.454311,0 -0.822741,-0.3498 -0.822741,-0.7816 z"
     id="path4"
     inkscape:connector-curvature="0"
     style="clip-rule:evenodd;fill:#ffffff;fill-rule:evenodd;stroke-width:1.00221992" />
  <path
     d="m 35.029849,14.6829 c -1.826784,-1.595 -2.740227,-3.6356 -2.740227,-6.14531 0,-2.5096 0.913443,-4.55014 2.715416,-6.1452 C 36.832124,0.797414 39.127983,0 41.892918,0 c 1.188459,0 2.298271,0.162312 3.338675,0.495835 0.678905,0.217608 1.129699,0.831185 1.129699,1.511995 v 2.12124 c 0,0.41826 -0.458429,0.69626 -0.855988,0.51675 -1.110815,-0.50154 -2.290335,-0.75238 -3.562967,-0.75238 -1.456646,0 -2.666198,0.44579 -3.629159,1.31363 -0.962761,0.86769 -1.456546,1.99361 -1.456546,3.33052 0,1.36041 0.493785,2.48641 1.481355,3.35421 1.012079,0.8677 2.271151,1.29 3.777114,1.29 1.427317,0 2.658766,-0.2721 3.706,-0.8049 0.378877,-0.1929 0.836401,0.0668 0.836401,0.4752 v 2.1609 c 0,0.6616 -0.435225,1.2537 -1.089923,1.4792 -1.119553,0.3854 -2.336238,0.5831 -3.650051,0.5831 -2.765036,0 -5.060896,-0.7975 -6.887679,-2.3924 z"
     id="path6"
     inkscape:connector-curvature="0"
     style="clip-rule:evenodd;fill:#ffffff;fill-rule:evenodd;stroke-width:1.00221992" />
  <path
     d="m 2.7178114,24.617 h 0.4280542 c 0.241569,0 0.419858,-0.0609 0.5351281,-0.1832 0.1152601,-0.1221 0.1729453,-0.3086 0.1729453,-0.5601 v -1.9786 c 0,-0.0662 0.024649,-0.1231 0.074058,-0.1701 0.049398,-0.0472 0.1088014,-0.0705 0.1783693,-0.0705 h 0.4993496 c 0.073204,0 0.1344952,0.0233 0.1838938,0.0705 0.049409,0.047 0.074058,0.1039 0.074058,0.1701 v 1.9735 c 0,0.4675 -0.1435452,0.8297 -0.430716,1.0861 -0.2873516,0.2566 -0.7072197,0.3847 -1.259584,0.3847 h -0.482977 c -0.5525451,0 -0.9724021,-0.1281 -1.2595799,-0.3847 C 1.143546,24.6983 1,24.3361 1,23.8686 v -1.9735 c 0,-0.0662 0.024657,-0.1231 0.074058,-0.1701 0.049401,-0.0472 0.1106989,-0.0705 0.1838084,-0.0705 h 0.4995225 c 0.069402,0 0.1288893,0.0233 0.1783723,0.0705 0.049318,0.047 0.074058,0.1039 0.074058,0.1701 v 1.9786 c 0,0.2515 0.057595,0.438 0.1729454,0.5601 0.1151897,0.1223 0.293559,0.1832 0.5350473,0.1832 z"
     id="path8"
     inkscape:connector-curvature="0"
     style="clip-rule:evenodd;fill:#ffffff;fill-rule:evenodd;stroke-width:1.00221992" />
  <path
     d="m 6.860584,21.6543 h 0.5048741 c 0.069578,0 0.1290612,0.0233 0.1783794,0.0705 0.049399,0.0472 0.074139,0.1059 0.074139,0.1754 v 2.6957 h 2.3324314 c 0.069487,0 0.1289711,0.0238 0.1784601,0.0708 0.04932,0.0471 0.07406,0.1038 0.07406,0.17 v 0.241 c 0,0.0661 -0.02474,0.1228 -0.07406,0.17 -0.04949,0.047 -0.108973,0.0707 -0.1784601,0.0707 H 6.860584 c -0.069568,0 -0.1290612,-0.0227 -0.178289,-0.0681 -0.049479,-0.0453 -0.074228,-0.1011 -0.074228,-0.1675 v -3.1826 c 0,-0.0695 0.024749,-0.1282 0.074228,-0.1754 0.049227,-0.0472 0.1087211,-0.0705 0.1782892,-0.0705 z"
     id="path10"
     inkscape:connector-curvature="0"
     style="clip-rule:evenodd;fill:#ffffff;fill-rule:evenodd;stroke-width:1.00221992" />
  <path
     d="m 10.887112,21.6543 h 3.402758 c 0.07312,0 0.133491,0.0227 0.181101,0.0679 0.04751,0.0455 0.07132,0.103 0.07132,0.1729 v 0.2407 c 0,0.0698 -0.02381,0.1275 -0.07132,0.1727 -0.04761,0.0455 -0.107977,0.0682 -0.181101,0.0682 h -1.196495 v 2.7061 c 0,0.0664 -0.02471,0.1222 -0.07403,0.1675 -0.04941,0.0454 -0.108882,0.0681 -0.17839,0.0681 h -0.504934 c -0.06961,0 -0.12887,-0.0227 -0.178289,-0.0681 -0.04941,-0.0453 -0.07422,-0.1011 -0.07422,-0.1675 v -2.7061 h -1.196395 c -0.07319,0 -0.133551,-0.0227 -0.181051,-0.0682 -0.04759,-0.0452 -0.07138,-0.1029 -0.07138,-0.1727 v -0.2407 c 0,-0.0699 0.02379,-0.1274 0.07138,-0.1729 0.0475,-0.0452 0.107857,-0.0679 0.181051,-0.0679 z"
     id="path12"
     inkscape:connector-curvature="0"
     style="clip-rule:evenodd;fill:#ffffff;fill-rule:evenodd;stroke-width:1.00221992" />
  <path
     d="m 16.012493,25.083 v -3.1879 c 0,-0.0662 0.02471,-0.1231 0.07413,-0.1701 0.04931,-0.0472 0.108681,-0.0705 0.178289,-0.0705 h 0.49941 c 0.07322,0 0.134495,0.0233 0.183914,0.0705 0.04931,0.047 0.07403,0.1039 0.07403,0.1701 v 3.1827 c 0,0.0662 -0.02561,0.1229 -0.07674,0.1701 -0.05133,0.047 -0.111694,0.0705 -0.181202,0.0705 h -0.49941 c -0.06961,0 -0.128971,-0.0225 -0.178289,-0.0679 -0.04942,-0.0455 -0.07413,-0.1011 -0.07413,-0.1675 z"
     id="path14"
     inkscape:connector-curvature="0"
     style="clip-rule:evenodd;fill:#ffffff;fill-rule:evenodd;stroke-width:1.00221992" />
  <path
     d="m 21.466729,25.3183 h -0.3843 c -0.06961,0 -0.1354,-0.0224 -0.197474,-0.0678 -0.06238,-0.0456 -0.10617,-0.0997 -0.131784,-0.1626 l -0.944077,-2.5122 v 2.4967 c 0,0.0698 -0.02461,0.1281 -0.07393,0.1755 -0.04941,0.0469 -0.108981,0.0704 -0.178388,0.0704 h -0.483038 c -0.06951,0 -0.128971,-0.0235 -0.178289,-0.0704 -0.04942,-0.0474 -0.07413,-0.1057 -0.07413,-0.1755 v -3.1721 c 0,-0.0697 0.0238,-0.1283 0.07132,-0.1753 0.04751,-0.0472 0.106069,-0.0707 0.175678,-0.0707 h 1.092233 c 0.0694,0 0.135298,0.0235 0.197474,0.0707 0.06218,0.047 0.104261,0.1038 0.126158,0.1701 l 0.790297,2.1827 0.790398,-2.1827 c 0.02189,-0.0663 0.06398,-0.1231 0.126258,-0.1701 0.06207,-0.0472 0.127967,-0.0707 0.197474,-0.0707 h 1.092234 c 0.0694,0 0.128067,0.0235 0.175577,0.0707 0.04751,0.047 0.07151,0.1056 0.07151,0.1753 v 3.1721 c 0,0.0698 -0.02491,0.1281 -0.07422,0.1755 -0.04942,0.0469 -0.108882,0.0704 -0.178289,0.0704 h -0.483037 c -0.06951,0 -0.12907,-0.0235 -0.178389,-0.0704 -0.04931,-0.0474 -0.07403,-0.1057 -0.07403,-0.1755 v -2.4967 l -0.944078,2.5122 c -0.02561,0.0629 -0.0694,0.117 -0.131682,0.1626 -0.06228,0.0454 -0.128168,0.0678 -0.197474,0.0678 z"
     id="path16"
     inkscape:connector-curvature="0"
     style="clip-rule:evenodd;fill:#ffffff;fill-rule:evenodd;stroke-width:1.00221992" />
  <path
     d="m 26.855274,22.8898 -0.235944,0.8217 h 1.706853 v -1.3346 h -0.762775 c -0.172162,0 -0.322025,0.0461 -0.450192,0.1385 -0.128067,0.0926 -0.214047,0.2172 -0.257942,0.3744 z m -1.646486,2.1932 0.675088,-2.4341 c 0.182909,-0.6628 0.775632,-0.9944 1.778169,-0.9944 h 1.443487 c 0.06579,0 0.120735,0.0234 0.164628,0.0705 0.04389,0.047 0.0658,0.102 0.0658,0.1649 v 3.1931 c 0,0.0663 -0.02471,0.122 -0.07403,0.1675 -0.04932,0.0455 -0.108982,0.0679 -0.178389,0.0679 h -0.504935 c -0.07312,0 -0.133691,-0.0224 -0.181101,-0.0679 -0.04761,-0.0455 -0.07132,-0.103 -0.07132,-0.1728 v -0.6439 h -1.904332 l -0.181302,0.6439 c -0.01828,0.0698 -0.05856,0.1273 -0.120634,0.1728 -0.06238,0.0455 -0.128268,0.0679 -0.197574,0.0679 h -0.526932 c -0.06951,0 -0.122542,-0.0224 -0.159104,-0.0679 -0.03666,-0.0455 -0.0459,-0.1012 -0.02752,-0.1675 z"
     id="path18"
     inkscape:connector-curvature="0"
     style="clip-rule:evenodd;fill:#ffffff;fill-rule:evenodd;stroke-width:1.00221992" />
  <path
     d="m 31.058474,21.6543 h 3.402658 c 0.07322,0 0.133591,0.0227 0.181101,0.0679 0.04751,0.0455 0.07141,0.103 0.07141,0.1729 v 0.2407 c 0,0.0698 -0.0239,0.1275 -0.07141,0.1727 -0.04751,0.0455 -0.107877,0.0682 -0.181101,0.0682 h -1.196395 v 2.7061 c 0,0.0664 -0.02471,0.1222 -0.07413,0.1675 -0.04931,0.0454 -0.108882,0.0681 -0.178389,0.0681 h -0.504834 c -0.06961,0 -0.12887,-0.0227 -0.17839,-0.0681 -0.04942,-0.0453 -0.07413,-0.1011 -0.07413,-0.1675 v -2.7061 h -1.196395 c -0.07322,0 -0.133591,-0.0227 -0.181102,-0.0682 -0.04751,-0.0452 -0.07142,-0.1029 -0.07142,-0.1727 v -0.2407 c 0,-0.0699 0.0239,-0.1274 0.07142,-0.1729 0.04751,-0.0452 0.107878,-0.0679 0.181102,-0.0679 z"
     id="path20"
     inkscape:connector-curvature="0"
     style="clip-rule:evenodd;fill:#ffffff;fill-rule:evenodd;stroke-width:1.00221992" />
  <path
     d="m 37.846613,24.617 h 0.428195 c 0.241468,0 0.419758,-0.0609 0.535067,-0.1832 0.115311,-0.1221 0.172866,-0.3086 0.172866,-0.5601 v -1.9786 c 0,-0.0662 0.02471,-0.1231 0.07413,-0.1701 0.04931,-0.0472 0.108882,-0.0705 0.178389,-0.0705 h 0.49941 c 0.07312,0 0.134495,0.0233 0.183814,0.0705 0.04941,0.047 0.07413,0.1039 0.07413,0.1701 v 1.9735 c 0,0.4675 -0.143635,0.8297 -0.430806,1.0861 -0.287271,0.2566 -0.707229,0.3847 -1.259573,0.3847 h -0.483038 c -0.552546,0 -0.972302,-0.1281 -1.259574,-0.3847 -0.287272,-0.2564 -0.430806,-0.6186 -0.430806,-1.0861 v -1.9735 c 0,-0.0662 0.02471,-0.1231 0.07413,-0.1701 0.04941,-0.0472 0.11069,-0.0705 0.183814,-0.0705 h 0.49951 c 0.0694,0 0.12887,0.0233 0.17839,0.0705 0.04931,0.047 0.07403,0.1039 0.07403,0.1701 v 1.9786 c 0,0.2515 0.05756,0.438 0.172965,0.5601 0.115209,0.1223 0.293498,0.1832 0.534967,0.1832 z"
     id="path22"
     inkscape:connector-curvature="0"
     style="clip-rule:evenodd;fill:#ffffff;fill-rule:evenodd;stroke-width:1.00221992" />
  <path
     d="m 44.382335,25.3183 h -0.384301 c -0.06961,0 -0.135399,-0.0224 -0.197474,-0.0678 -0.06238,-0.0456 -0.10617,-0.0997 -0.131783,-0.1626 L 42.7247,22.5757 v 2.4967 c 0,0.0698 -0.02461,0.1281 -0.07393,0.1755 -0.04941,0.0469 -0.108981,0.0704 -0.17839,0.0704 h -0.483037 c -0.06951,0 -0.12897,-0.0235 -0.178288,-0.0704 -0.04942,-0.0474 -0.07413,-0.1057 -0.07413,-0.1755 v -3.1721 c 0,-0.0697 0.02381,-0.1283 0.07132,-0.1753 0.04751,-0.0472 0.106069,-0.0707 0.175678,-0.0707 h 1.092233 c 0.0694,0 0.135298,0.0235 0.197473,0.0707 0.06218,0.047 0.104262,0.1038 0.126159,0.1701 l 0.790297,2.1827 0.790398,-2.1827 c 0.02189,-0.0663 0.06398,-0.1231 0.126258,-0.1701 0.06208,-0.0472 0.128067,-0.0707 0.197474,-0.0707 h 1.092234 c 0.06951,0 0.128067,0.0235 0.175576,0.0707 0.04751,0.047 0.07151,0.1056 0.07151,0.1753 v 3.1721 c 0,0.0698 -0.02491,0.1281 -0.07422,0.1755 -0.04942,0.0469 -0.108882,0.0704 -0.178289,0.0704 H 45.90799 c -0.06951,0 -0.129072,-0.0235 -0.17839,-0.0704 -0.04931,-0.0474 -0.07403,-0.1057 -0.07403,-0.1755 v -2.4967 l -0.944078,2.5122 c -0.02561,0.0629 -0.0694,0.117 -0.131682,0.1626 -0.06228,0.0454 -0.128067,0.0678 -0.197474,0.0678 z"
     id="path24"
     inkscape:connector-curvature="0"
     style="clip-rule:evenodd;fill:#ffffff;fill-rule:evenodd;stroke-width:1.00221992" />
  <mask
     id="mask0"
     mask-type="alpha"
     maskUnits="userSpaceOnUse"
     x="50"
     y="21"
     width="19"
     height="5">
    <path
       d="m 50.4562,21.6255 c -0.2203,0 -0.3988,0.1713 -0.3988,0.3826 v 2.9766 c 0,0.2113 0.1785,0.3825 0.3988,0.3825 h 17.9233 c 0.2204,0 0.3989,-0.1712 0.3989,-0.3825 v -2.9766 c 0,-0.2113 -0.1785,-0.3826 -0.3989,-0.3826 z"
       id="path26"
       inkscape:connector-curvature="0"
       style="clip-rule:evenodd;fill:#ffffff;fill-rule:evenodd" />
  </mask>
  <g
     mask="url(#mask0)"
     id="g31"
     transform="matrix(1.0044449,0,0,1,0.91588758,0)">
    <path
       d="m 50.4562,21.6255 c -0.2203,0 -0.3988,0.1713 -0.3988,0.3826 v 2.9766 c 0,0.2113 0.1785,0.3825 0.3988,0.3825 h 17.9233 c 0.2204,0 0.3989,-0.1712 0.3989,-0.3825 v -2.9766 c 0,-0.2113 -0.1785,-0.3826 -0.3989,-0.3826 z"
       id="path29"
       style="clip-rule:evenodd;fill:url(#paint0_linear);fill-rule:evenodd"
       inkscape:connector-curvature="0" />
  </g>
  <mask
     id="mask1"
     mask-type="alpha"
     maskUnits="userSpaceOnUse"
     x="50"
     y="0"
     width="19"
     height="17">
    <path
       d="m 64.7866,0.0351562 c -0.8858,0 -1.6037,0.6847778 -1.6037,1.5294938 v 6.89091 c 0,2.53904 -1.5555,3.76564 -3.7987,3.76564 -2.1836,0 -3.7988,-1.2266 -3.7988,-3.76564 V 1.56465 c 0,-0.844716 -0.718,-1.5294938 -1.6037,-1.5294938 h -2.1769 c -0.8856,0 -1.6036,0.6847778 -1.6036,1.5294938 v 6.63402 c 0,2.76743 0.8675,4.93543 2.6023,6.47593 1.7348,1.512 3.9186,2.2824 6.5807,2.2824 2.6622,0 4.8456,-0.7704 6.5805,-2.2824 1.726,-1.5326 2.5934,-3.6862 2.6023,-6.43325 V 1.55085 C 68.5593,0.712506 67.8443,0.0351562 66.9634,0.0351562 Z"
       id="path33"
       inkscape:connector-curvature="0"
       style="clip-rule:evenodd;fill:#ffffff;fill-rule:evenodd" />
  </mask>
  <g
     mask="url(#mask1)"
     id="g38"
     transform="matrix(1.0044449,0,0,1,0.91588758,0)">
    <path
       d="m 64.7866,0.0351562 c -0.8858,0 -1.6037,0.6847778 -1.6037,1.5294938 v 6.89091 c 0,2.53904 -1.5555,3.76564 -3.7987,3.76564 -2.1836,0 -3.7988,-1.2266 -3.7988,-3.76564 V 1.56465 c 0,-0.844716 -0.718,-1.5294938 -1.6037,-1.5294938 h -2.1769 c -0.8856,0 -1.6036,0.6847778 -1.6036,1.5294938 v 6.63402 c 0,2.76743 0.8675,4.93543 2.6023,6.47593 1.7348,1.512 3.9186,2.2824 6.5807,2.2824 2.6622,0 4.8456,-0.7704 6.5805,-2.2824 1.726,-1.5326 2.5934,-3.6862 2.6023,-6.43325 V 1.55085 C 68.5593,0.712506 67.8443,0.0351562 66.9634,0.0351562 Z"
       id="path36"
       style="clip-rule:evenodd;fill:url(#paint1_linear);fill-rule:evenodd"
       inkscape:connector-curvature="0" />
  </g>
  <defs
     id="defs50">
    <linearGradient
       id="paint0_linear"
       x1="-18.2883"
       y1="1.37665"
       x2="-18.2883"
       y2="32.438801"
       gradientUnits="userSpaceOnUse">
      <stop
         stop-color="#FF421D"
         id="stop40" />
      <stop
         offset="1"
         stop-color="#FF0400"
         id="stop42" />
    </linearGradient>
    <linearGradient
       id="paint1_linear"
       x1="42.6819"
       y1="-0.231245"
       x2="42.6819"
       y2="30.546801"
       gradientUnits="userSpaceOnUse">
      <stop
         stop-color="#FF421D"
         id="stop45" />
      <stop
         offset="1"
         stop-color="#FF0400"
         id="stop47" />
    </linearGradient>
  </defs>
</svg>
