<svg width="89" height="89" viewBox="0 0 89 89" fill="none" xmlns="http://www.w3.org/2000/svg">
<path fill-rule="evenodd" clip-rule="evenodd" d="M23.8127 1.40901C23.0342 0.630492 21.3782 1.02538 20.1131 2.29039L2.2921 20.1114C1.02709 21.3764 0.6322 23.0325 1.41072 23.811L64.7304 87.1307C65.5089 87.9092 67.165 87.5144 68.43 86.2493L86.251 68.4283C87.5161 67.1633 87.9109 65.5072 87.1324 64.7287L23.8127 1.40901Z" fill="#BDBDC7"/>
<path fill-rule="evenodd" clip-rule="evenodd" d="M87.1309 23.8112C87.9094 23.0327 87.5146 21.3766 86.2495 20.1116L68.4285 2.29057C67.1635 1.02555 65.5074 0.630667 64.7289 1.40918L1.40922 64.7289C0.630706 65.5074 1.02559 67.1635 2.29061 68.4285L20.1116 86.2495C21.3767 87.5145 23.0327 87.9094 23.8112 87.1309L87.1309 23.8112Z" fill="#BDBDC7"/>
<path fill-rule="evenodd" clip-rule="evenodd" d="M53.5739 57C53.8093 57 54 56.6796 54 56.2843L54 50.7157C54 50.3204 53.8093 50 53.5739 50L34.4261 50C34.1907 50 34 50.3204 34 50.7157L34 56.2843C34 56.6796 34.1907 57 34.4261 57L53.5739 57Z" fill="white"/>
<path fill-rule="evenodd" clip-rule="evenodd" d="M49.8832 29C48.9185 29 48.1368 29.7689 48.1368 30.7173V38.4545C48.1368 41.3053 46.4429 42.6826 44.0001 42.6826C41.6222 42.6826 39.8632 41.3053 39.8632 38.4545V30.7173C39.8632 29.7689 39.0814 29 38.1169 29H35.7464C34.7819 29 34 29.7689 34 30.7173V38.1661C34 41.2733 34.9447 43.7076 36.8339 45.4373C38.7231 47.135 41.1011 48 44.0001 48C46.8991 48 49.2768 47.135 51.1661 45.4373C53.0456 43.7165 53.9903 41.2984 54 38.214V30.7018C53.9915 29.7605 53.2129 29 52.2536 29H49.8832Z" fill="white"/>
</svg>
