<?xml version="1.0" encoding="UTF-8"?>
<svg width="100px" height="100px" viewBox="0 0 100 100" version="1.1" xmlns="http://www.w3.org/2000/svg" xmlns:xlink="http://www.w3.org/1999/xlink">
    <!-- Generator: Sketch 58 (84663) - https://sketch.com -->
    <title>img-empty-staking-on</title>
    <desc>Created with Sketch.</desc>
    <g id="img-empty-staking-on" stroke="none" stroke-width="1" fill="none" fill-rule="evenodd">
        <g transform="translate(7.000000, 6.000000)" fill-rule="nonzero" id="Group_9018">
            <g>
                <g id="Group_9016" transform="translate(25.000000, 18.000000)" fill="#D6D6D6">
                    <ellipse id="Ellipse_613" cx="48" cy="32" rx="12" ry="4"></ellipse>
                    <ellipse id="Ellipse_614" cx="32" cy="44" rx="12" ry="4"></ellipse>
                    <polygon id="Rectangle_4669" points="0 0 14 0 14 14 0 14"></polygon>
                </g>
                <g id="Group_9017" fill="#666666">
                    <polygon id="Rectangle_4670" points="5 54 7 54 7 58 5 58"></polygon>
                    <path d="M85.046,51.994 C85.6272097,51.4907331 85.9728288,50.7683385 86.000257,50 C86.000257,46.717 79.46,45 73,45 C66.54,45 60,46.717 60,50 C60.0271712,50.7683385 60.3727903,51.4907331 60.954,51.994 C60.3504203,52.4825202 59.999743,53.2174947 59.999743,53.994 C59.999743,54.7705053 60.3504203,55.5054798 60.954,55.994 C60.6142226,56.3158478 60.3499,56.7089166 60.18,57.145 C59.7933333,57.1103333 59.4,57.082 59,57.06 L59,33 L64,33 L64,17 L45.644,17 C48.5025304,14.7010471 49.6782155,10.8963169 48.6149394,7.38550156 C47.5516632,3.87468623 44.4625733,1.3615744 40.8088537,1.03490416 C37.1551341,0.708233923 33.6692204,2.63349058 32,5.9 C30.3317756,2.63124851 26.8449067,0.703887514 23.1895928,1.03006205 C19.534279,1.35623659 16.4437511,3.8705183 15.3806359,7.38299535 C14.3175207,10.8954724 15.4950718,14.701566 18.356,17 L0,17 L0,33 L5,33 L5,50 L7,50 L7,33 L57,33 L57,57 C50.54,57 44,58.717 44,62 C44.0271712,62.7683385 44.3727903,63.4907331 44.954,63.994 C44.3504203,64.4825202 43.999743,65.2174947 43.999743,65.994 C43.999743,66.7705053 44.3504203,67.5054798 44.954,67.994 C44.6503127,68.2806418 44.4033398,68.6219258 44.226,69 L7,69 L7,62 L5,62 L5,71 L44.23,71 C44.4083074,71.372945 44.6537283,71.7098902 44.954,71.994 C44.3504203,72.4825202 43.999743,73.2174947 43.999743,73.994 C43.999743,74.7705053 44.3504203,75.5054798 44.954,75.994 C44.3504203,76.4825202 43.999743,77.2174947 43.999743,77.994 C43.999743,78.7705053 44.3504203,79.5054798 44.954,79.994 C44.3698802,80.5001486 44.0239869,81.2274672 44,82 C44,85.283 50.54,87 57,87 C62.874,87 68.8,85.576 69.826,82.85 C70.868,82.943 71.932,83 73,83 C79.46,83 86.000257,81.283 86.000257,78 C85.9760131,77.2274672 85.6301198,76.5001486 85.046,75.994 C85.6495797,75.5054798 86.000257,74.7705053 86.000257,73.994 C86.000257,73.2174947 85.6495797,72.4825202 85.046,71.994 C85.6495797,71.5054798 86.000257,70.7705053 86.000257,69.994 C86.000257,69.2174947 85.6495797,68.4825202 85.046,67.994 C85.6495797,67.5054798 86.000257,66.7705053 86.000257,65.994 C86.000257,65.2174947 85.6495797,64.4825202 85.046,63.994 C85.6495797,63.5054798 86.000257,62.7705053 86.000257,61.994 C86.000257,61.2174947 85.6495797,60.4825202 85.046,59.994 C85.6495797,59.5054798 86.000257,58.7705053 86.000257,57.994 C86.000257,57.2174947 85.6495797,56.4825202 85.046,55.994 C85.6495797,55.5054798 86.000257,54.7705053 86.000257,53.994 C86.000257,53.2174947 85.6495797,52.4825202 85.046,51.994 Z M24,31 L2,31 L2,19 L24,19 L24,31 Z M17,10.0000001 C17,6.13400681 20.1340068,3.00000015 24,3.00000015 C27.8659932,3.00000015 31,6.13400681 31,10.0000001 L31,17.0000001 L24,17.0000001 C20.1358343,16.9955914 17.0044086,13.8641657 17,10.0000001 L17,10.0000001 Z M38,31 L26,31 L26,19 L38,19 L38,31 Z M33,17 L33,10 C33,6.13400675 36.1340068,3 40,3 C43.8659932,3 47,6.13400675 47,10 C47,13.8659932 43.8659932,17 40,17 L33,17 Z M40,31 L40,19 L62,19 L62,31 L40,31 Z M44,70 C44.0009465,70.1734116 44.0214086,70.3461657 44.061,70.515 C44.0204338,70.3463386 43.9999582,70.1734712 44,70 L44,70 Z M57,85 C49.883,85 46,83.018 46,82 C46,81.759 46.247,81.461 46.678,81.151 C49.179,82.37 53.1,83 57,83 C60.9,83 64.821,82.37 67.322,81.151 C67.753,81.461 68,81.759 68,82 C68,83.018 64.117,85 57,85 Z M57,81 C49.883,81 46,79.018 46,78 C46,77.759 46.247,77.461 46.678,77.151 C49.179,78.37 53.1,79 57,79 C60.9,79 64.821,78.37 67.322,77.151 C67.753,77.461 68,77.759 68,78 C68,79.018 64.117,81 57,81 Z M57,77 C49.883,77 46,75.018 46,74 C46,73.759 46.247,73.461 46.678,73.151 C49.179,74.37 53.1,75 57,75 C60.9,75 64.821,74.37 67.322,73.151 C67.753,73.461 68,73.759 68,74 C68,75.018 64.117,77 57,77 Z M57,73 C49.883,73 46,71.018 46,70 C46,69.759 46.247,69.461 46.678,69.151 C49.179,70.37 53.1,71 57,71 C60.9,71 64.821,70.37 67.322,69.151 C67.753,69.461 68,69.759 68,70 C68,71.018 64.117,73 57,73 Z M57,69 C49.883,69 46,67.018 46,66 C46,65.759 46.247,65.461 46.678,65.151 C49.179,66.37 53.1,67 57,67 C60.9,67 64.821,66.37 67.322,65.151 C67.753,65.461 68,65.759 68,66 C68,67.018 64.117,69 57,69 Z M57,65 C49.883,65 46,63.018 46,62 C46,60.982 49.883,59 57,59 C64.117,59 68,60.982 68,62 C68,63.018 64.117,65 57,65 Z M73,81 C71.793,81 70.7,80.932 69.687,80.832 C69.5176147,80.52142 69.3014147,80.2387748 69.046,79.994 C69.3871057,79.6718366 69.6536612,79.279 69.827,78.843 C70.868,78.943 71.927,79 73,79 C76.9,79 80.821,78.37 83.322,77.151 C83.753,77.461 84,77.759 84,78 C84,79.018 80.117,81 73,81 L73,81 Z M73,77 C71.793,77 70.7,76.932 69.687,76.832 C69.5176147,76.52142 69.3014147,76.2387748 69.046,75.994 C69.3871057,75.6718366 69.6536612,75.279 69.827,74.843 C70.868,74.943 71.927,75 73,75 C76.9,75 80.821,74.37 83.322,73.151 C83.753,73.461 84,73.759 84,74 C84,75.018 80.117,77 73,77 Z M73,73 C71.793,73 70.7,72.932 69.687,72.832 C69.5176147,72.52142 69.3014147,72.2387748 69.046,71.994 C69.3871057,71.6718366 69.6536612,71.279 69.827,70.843 C70.868,70.943 71.927,71 73,71 C76.9,71 80.821,70.37 83.322,69.151 C83.753,69.461 84,69.759 84,70 C84,71.018 80.117,73 73,73 L73,73 Z M73,69 C71.793,69 70.7,68.932 69.687,68.832 C69.5176147,68.52142 69.3014147,68.2387748 69.046,67.994 C69.3871057,67.6718366 69.6536612,67.279 69.827,66.843 C70.868,66.943 71.927,67 73,67 C76.9,67 80.821,66.37 83.322,65.151 C83.753,65.461 84,65.759 84,66 C84,67.018 80.117,69 73,69 L73,69 Z M73,65 C71.793,65 70.7,64.932 69.687,64.832 C69.5176147,64.52142 69.3014147,64.2387748 69.046,63.994 C69.3871057,63.6718366 69.6536612,63.279 69.827,62.843 C70.868,62.943 71.927,63 73,63 C76.9,63 80.821,62.37 83.322,61.151 C83.753,61.461 84,61.759 84,62 C84,63.018 80.117,65 73,65 L73,65 Z M73,61 C71.8,61 70.713,60.933 69.7,60.834 C69.079,59.672 67.525,58.772 65.487,58.134 C67.9468476,58.7268384 70.4697834,59.0176494 73,59 C76.9,59 80.821,58.37 83.322,57.151 C83.753,57.461 84,57.759 84,58 C84,59.018 80.117,61 73,61 L73,61 Z M62.368,57.417 C62.4645252,57.3206941 62.5681502,57.2317772 62.678,57.151 C63.2690303,57.4279667 63.8792828,57.661908 64.504,57.851 C63.7982575,57.6770822 63.0856541,57.5322929 62.368,57.417 L62.368,57.417 Z M73,57 C65.883,57 62,55.018 62,54 C62,53.759 62.247,53.461 62.678,53.151 C65.179,54.37 69.1,55 73,55 C76.9,55 80.821,54.37 83.322,53.151 C83.753,53.461 84,53.759 84,54 C84,55.018 80.117,57 73,57 Z M73,53 C65.883,53 62,51.018 62,50 C62,48.982 65.883,47 73,47 C80.117,47 84,48.982 84,50 C84,51.018 80.117,53 73,53 Z" id="Path_18975"></path>
                </g>
            </g>
        </g>
        <path d="M47.4831933,63.4705882 C47.7686177,63.4705882 48,63.7019705 48,63.987395 L48,63.987395 L48,66.4831933 C48,66.7686177 47.7686177,67 47.4831933,67 L47.4831933,67 L33.5168067,67 C33.2313823,67 33,66.7686177 33,66.4831933 L33,66.4831933 L33,63.987395 C33,63.7019705 33.2313823,63.4705882 33.5168067,63.4705882 L33.5168067,63.4705882 Z M36.0876683,47 L36.2215843,47.0064312 C36.8820419,47.0702211 37.3974347,47.6006952 37.3974347,48.2456532 L37.3974347,48.2456532 L37.3974347,53.8577599 L37.4021057,54.067862 C37.488969,55.9932828 38.7781753,56.9245435 40.5000974,56.9245435 L40.5000974,56.9245435 L40.6875925,56.9209772 C42.4183048,56.8543783 43.6026302,55.8542723 43.6026302,53.8577599 L43.6026302,53.8577599 L43.6026302,48.2456532 L43.6093909,48.1182924 C43.6764503,47.4901643 44.2341212,47 44.9123966,47 L44.9123966,47 L46.6902335,47 L46.8234378,47.006362 C47.4804387,47.0694682 47.9940363,47.5943213 48,48.2344178 L48,48.2344178 L48,53.6833018 L47.9936503,54.0152653 C47.9201272,56.0947078 47.2137474,57.7369467 45.8745667,58.9226632 L45.8745667,58.9226632 L45.6350147,59.1223084 C44.2582829,60.2218919 42.553552,60.7815126 40.5000974,60.7815126 L40.5000974,60.7815126 L40.1413365,60.7757074 C38.1288109,60.7099377 36.4635873,60.0857036 35.1254333,58.9226632 L35.1254333,58.9226632 L34.9182065,58.7306422 C33.6394207,57.4902689 33,55.7896737 33,53.648546 L33,53.648546 L33,48.2456532 L33.0067622,48.1182924 C33.0738353,47.4901643 33.6316128,47 34.3097665,47 L34.3097665,47 L36.0876683,47 Z" id="Combined-Shape" fill="#666666"></path>
    </g>
</svg>