<?xml version="1.0" encoding="UTF-8"?>
<svg width="219px" height="86px" viewBox="0 0 219 86" version="1.1" xmlns="http://www.w3.org/2000/svg" xmlns:xlink="http://www.w3.org/1999/xlink">
    <!-- Generator: Sketch 58 (84663) - https://sketch.com -->
    <title>img-logo-btcu</title>
    <desc>Created with Sketch.</desc>
    <defs>
        <path d="M46.6670758,7.10542736e-15 C43.8327732,7.10542736e-15 41.536037,2.37796216 41.536037,5.31132615 L41.536037,5.31132615 L41.536037,29.240722 C41.536037,38.0576602 36.5590971,42.3171448 29.3817964,42.3171448 L29.3817964,42.3171448 C22.3952123,42.3171448 17.2270473,38.0576602 17.2270473,29.240722 L17.2270473,29.240722 L17.2270473,5.31132615 C17.2270473,2.37796216 14.9298025,7.10542736e-15 12.0960084,7.10542736e-15 L12.0960084,7.10542736e-15 L5.13103889,7.10542736e-15 C2.29724479,7.10542736e-15 1.20792265e-13,2.37796216 1.20792265e-13,5.31132615 L1.20792265e-13,5.31132615 L1.20792265e-13,28.3486571 C1.20792265e-13,37.9586882 2.77556197,45.4874101 8.32643162,50.8369036 L8.32643162,50.8369036 C13.877047,56.0876883 20.8641396,58.76283 29.3817964,58.76283 L29.3817964,58.76283 C37.8994532,58.76283 44.8855287,56.0876883 50.4363983,50.8369036 L50.4363983,50.8369036 C55.9587876,45.5150485 58.7343496,38.0363391 58.76283,28.496852 L58.76283,28.496852 L58.76283,5.26341945 C58.7379097,2.35216624 56.4503278,7.10542736e-15 53.6317911,7.10542736e-15 L53.6317911,7.10542736e-15 L46.6670758,7.10542736e-15 Z" id="path-1"></path>
    </defs>
    <g id="img-logo-btcu" stroke="none" stroke-width="1" fill="none" fill-rule="evenodd">
        <g id="logo/btcu-copy-2">
            <path d="M14.454796,43.6057508 L26.1703115,43.6057508 C30.6137392,43.6057508 33.2807391,41.4505175 33.2807391,37.6993711 C33.2807391,33.9482246 30.452603,31.7132733 26.1703115,31.7132733 L14.454796,31.7132733 L14.454796,43.6057508 Z M14.454796,21.3454724 L25.272245,21.3454724 C28.8241338,21.3454724 31.084379,19.5057776 31.084379,16.5469113 C31.084379,13.4274964 28.8241338,11.5875422 25.272245,11.5875422 L14.454796,11.5875422 L14.454796,21.3454724 Z M-7.22977234e-12,55.4982283 L-7.22977234e-12,0 L27.3839665,0 C37.6550446,0 44.8762581,4.9157388 44.8762581,14.0332516 C44.8762581,19.4238529 41.7470309,23.2296939 38.2964503,24.8157396 C41.0252218,25.4497465 43.5122627,27.0357921 45.6792512,29.6520347 C47.8454591,32.2677631 48.969025,35.5185267 48.969025,39.5621847 C48.969025,44.318779 47.1233898,48.2043209 43.4323797,51.1370527 C39.8212525,54.0708129 34.9267935,55.4982283 28.9087687,55.4982283 L-7.22977234e-12,55.4982283 Z" id="B" fill="#FFFFFF"></path>
            <path d="M66.0796743,12.0909023 L51.6844181,12.0909023 C50.1847031,12.0909023 48.969025,10.9486873 48.969025,9.54046013 L48.969025,2.54994586 C48.969025,1.1419668 50.1847031,1.77635684e-14 51.6844181,1.77635684e-14 L95.222921,1.77635684e-14 C96.7226361,1.77635684e-14 97.9380499,1.1419668 97.9380499,2.54994586 L97.9380499,9.54046013 C97.9380499,10.9486873 96.7226361,12.0909023 95.222921,12.0909023 L80.7460207,12.0909023 L80.7460207,52.9482824 C80.7460207,54.3570059 79.5303426,55.4982283 78.0306276,55.4982283 L68.7950675,55.4982283 C67.2956166,55.4982283 66.0796743,54.3570059 66.0796743,52.9482824 L66.0796743,12.0909023 Z" id="T" fill="#FFFFFF"></path>
            <path d="M107.277346,47.7222269 C101.051512,42.5382259 97.9380499,35.9060667 97.9380499,27.7488669 C97.9380499,19.5921616 101.051512,12.9600024 107.193036,7.77575423 C113.41996,2.59175327 121.24468,2.27373675e-13 130.668285,2.27373675e-13 C134.718706,2.27373675e-13 138.50119,0.527546879 142.047116,1.61156425 C144.361135,2.31883305 145.897539,4.31307891 145.897539,6.52585872 L145.897539,13.4203081 C145.897539,14.7797178 144.335215,15.6832716 142.980254,15.0998552 C139.194223,13.4697501 135.174088,12.6544504 130.836632,12.6544504 C125.872173,12.6544504 121.749721,14.1033502 118.467911,16.9240203 C115.186648,19.7441959 113.503452,23.4036507 113.503452,27.7488669 C113.503452,32.1704712 115.186648,35.8301732 118.552221,38.6508432 C122.001832,41.4710188 126.292904,42.8435307 131.42571,42.8435307 C136.290035,42.8435307 140.487247,41.9592593 144.056365,40.2275508 C145.347752,39.6003781 146.907075,40.4446015 146.907075,41.7718738 L146.907075,48.795367 C146.907075,50.9456026 145.423876,52.8701351 143.19253,53.6028666 C139.376758,54.8554814 135.230022,55.4982283 130.752323,55.4982283 C121.328444,55.4982283 113.503452,52.9062278 107.277346,47.7222269" id="C" fill="#FFFFFF"></path>
            <g id="Group-3" transform="translate(0.191130, 72.864755)" fill="#FFFFFF">
                <path d="M5.58314808,9.86452666 L6.97438172,9.86452666 C7.75952505,9.86452666 8.33899558,9.66164919 8.71363392,9.25452532 C9.08827227,8.84794902 9.27573154,8.22699612 9.27573154,7.38947633 L9.27573154,0.801571334 C9.27573154,0.581171388 9.35587108,0.39170957 9.51643037,0.235102403 C9.67698966,0.0779476582 9.8700531,0.000465440881 10.0961811,0.000465440881 L11.7191469,0.000465440881 C11.9570437,0.000465440881 12.1562717,0.0779476582 12.316831,0.235102403 C12.4773903,0.39170957 12.5575298,0.581171388 12.5575298,0.801571334 L12.5575298,7.37250142 C12.5575298,8.92926428 12.0909832,10.1350299 11.1576097,10.9889771 C10.2236758,11.843198 8.85906197,12.2697609 7.06376813,12.2697609 L5.49404188,12.2697609 C3.69818762,12.2697609 2.33357376,11.843198 1.4002003,10.9889771 C0.466546628,10.1350299 1.33226763e-13,8.92926428 1.33226763e-13,7.37250142 L1.33226763e-13,0.801571334 C1.33226763e-13,0.581171388 0.0801395409,0.39170957 0.240698831,0.235102403 C0.401258121,0.0779476582 0.60048614,0.000465440881 0.838102681,0.000465440881 L2.4616289,0.000465440881 C2.68719649,0.000465440881 2.88054014,0.0779476582 3.04137964,0.235102403 C3.20165872,0.39170957 3.28207847,0.581171388 3.28207847,0.801571334 L3.28207847,7.38947633 C3.28207847,8.22699612 3.46925754,8.84794902 3.84417609,9.25452532 C4.21853422,9.66164919 4.79828496,9.86452666 5.58314808,9.86452666" id="Fill-21"></path>
                <path d="M19.0477964,0.000109515501 L20.6886955,0.000109515501 C20.9148235,0.000109515501 21.1081672,0.0778655216 21.2684463,0.235020266 C21.4290056,0.392175011 21.5094253,0.587386392 21.5094253,0.818737889 L21.5094253,9.79462839 L29.0901775,9.79462839 C29.3160253,9.79462839 29.509369,9.87375334 29.6702085,10.0303605 C29.8304876,10.1872415 29.9109073,10.3761557 29.9109073,10.5965557 L29.9109073,11.3987567 C29.9109073,11.6191566 29.8304876,11.8077971 29.6702085,11.9649518 C29.509369,12.121559 29.3160253,12.2004102 29.0901775,12.2004102 L19.0477964,12.2004102 C18.8216684,12.2004102 18.6283248,12.1248445 18.4683259,11.9737131 C18.3074864,11.8228555 18.2270666,11.6369529 18.2270666,11.4160054 L18.2270666,0.818737889 C18.2270666,0.587386392 18.3074864,0.392175011 18.4683259,0.235020266 C18.6283248,0.0778655216 18.8216684,0.000109515501 19.0477964,0.000109515501" id="Fill-23"></path>
                <path d="M32.1349203,0.000109515501 L43.1944571,0.000109515501 C43.4320736,0.000109515501 43.6282194,0.0756752115 43.7828943,0.226259026 C43.937289,0.377664207 44.0149067,0.569316335 44.0149067,0.802036775 L44.0149067,1.60341646 C44.0149067,1.83586311 43.937289,2.02778903 43.7828943,2.17837284 C43.6282194,2.32977802 43.4320736,2.40534372 43.1944571,2.40534372 L39.3057279,2.40534372 L39.3057279,11.4160054 C39.3057279,11.6369529 39.2253082,11.8228555 39.0650291,11.9737131 C38.9044698,12.1248445 38.7111261,12.2004102 38.4852783,12.2004102 L36.844099,12.2004102 C36.617971,12.2004102 36.4251878,12.1248445 36.2646285,11.9737131 C36.1040692,11.8228555 36.0233692,11.6369529 36.0233692,11.4160054 L36.0233692,2.40534372 L32.1349203,2.40534372 C31.8970235,2.40534372 31.7008778,2.32977802 31.5464831,2.17837284 C31.3918081,2.02778903 31.3144707,1.83586311 31.3144707,1.60341646 L31.3144707,0.802036775 C31.3144707,0.569316335 31.3918081,0.377664207 31.5464831,0.226259026 C31.7008778,0.0756752115 31.8970235,0.000109515501 32.1349203,0.000109515501" id="Fill-25"></path>
                <path d="M48.7925408,11.4160875 L48.7925408,0.801571334 C48.7925408,0.581171388 48.8729606,0.39170957 49.0335199,0.235102403 C49.193799,0.0779476582 49.3868624,0.000465440881 49.6129904,0.000465440881 L51.2362364,0.000465440881 C51.4741332,0.000465440881 51.6733612,0.0779476582 51.8339205,0.235102403 C51.9941996,0.39170957 52.0746193,0.581171388 52.0746193,0.801571334 L52.0746193,11.3988388 C52.0746193,11.6192388 51.9913975,11.808153 51.8249538,11.965034 C51.65823,12.1216411 51.4620842,12.1999447 51.2362364,12.1999447 L49.6129904,12.1999447 C49.3868624,12.1999447 49.193799,12.1249266 49.0335199,11.9737952 C48.8729606,11.82239 48.7925408,11.6373088 48.7925408,11.4160875" id="Fill-27"></path>
                <path d="M66.5202485,12.2000269 L65.2713606,12.2000269 C65.0452326,12.2000269 64.8314337,12.1252825 64.6294036,11.9741511 C64.4268131,11.8224722 64.2844674,11.6423192 64.2012455,11.4328708 L61.1329659,3.06780299 L61.1329659,11.3811247 C61.1329659,11.6135714 61.0528264,11.8076876 60.8925473,11.9653899 C60.731988,12.1217233 60.5383641,12.2000269 60.3127966,12.2000269 L58.7427901,12.2000269 C58.5169423,12.2000269 58.3235987,12.1217233 58.1633196,11.9653899 C58.0027603,11.8076876 57.9223405,11.6135714 57.9223405,11.3811247 L57.9223405,0.819175951 C57.9223405,0.587003088 57.999678,0.391791707 58.1543529,0.235458328 C58.3087476,0.0783035836 58.499009,-1.50990331e-14 58.725137,-1.50990331e-14 L62.2750945,-1.50990331e-14 C62.5006621,-1.50990331e-14 62.7147411,0.0783035836 62.9170514,0.235458328 C63.1190815,0.391791707 63.2558231,0.580979735 63.326996,0.801653471 L65.8956644,8.06937594 L68.4643329,0.801653471 C68.5355057,0.580979735 68.6725275,0.391791707 68.8748379,0.235458328 C69.0765877,0.0783035836 69.2906668,-1.50990331e-14 69.5167948,-1.50990331e-14 L73.0664721,-1.50990331e-14 C73.2923199,-1.50990331e-14 73.4828615,0.0783035836 73.6372562,0.235458328 C73.7916509,0.391791707 73.8695487,0.587003088 73.8695487,0.819175951 L73.8695487,11.3811247 C73.8695487,11.6135714 73.7888488,11.8076876 73.6282895,11.9653899 C73.4677302,12.1217233 73.2743866,12.2000269 73.048819,12.2000269 L71.4790927,12.2000269 C71.2529647,12.2000269 71.0596211,12.1217233 70.899342,11.9653899 C70.7387827,11.8076876 70.6586432,11.6135714 70.6586432,11.3811247 L70.6586432,3.06780299 L67.5900833,11.4328708 C67.5068615,11.6423192 67.3645157,11.8224722 67.1622054,11.9741511 C66.9598951,12.1252825 66.7458161,12.2000269 66.5202485,12.2000269" id="Fill-29"></path>
                <path d="M84.0339331,4.11334748 L83.2670033,6.84931849 L88.8145649,6.84931849 L88.8145649,2.40572702 L86.3352829,2.40572702 C85.7759874,2.40572702 85.2887053,2.55904872 84.872316,2.86678728 C84.4559266,3.17507342 84.1765591,3.59013717 84.0339331,4.11334748 M78.6825172,11.4161149 L80.8765473,3.31142022 C81.471149,1.10440907 83.3975803,0.000492819757 86.6558411,0.000492819757 L91.3473667,0.000492819757 C91.5614458,0.000492819757 91.7399384,0.0782488258 91.8825644,0.235129782 C92.0251903,0.391736949 92.0963632,0.574627836 92.0963632,0.784076233 L92.0963632,11.4161149 C92.0963632,11.6367886 92.0162237,11.8224174 91.8556644,11.9738226 C91.6953853,12.1252278 91.5017614,12.1999721 91.2759136,12.1999721 L89.6350145,12.1999721 C89.3971178,12.1999721 89.2004116,12.1252278 89.0462971,11.9738226 C88.8916222,11.8224174 88.8145649,11.6307653 88.8145649,11.3983186 L88.8145649,9.2545527 L82.6250463,9.2545527 L82.0360487,11.3983186 C81.9763644,11.6307653 81.8455072,11.8224174 81.6437573,11.9738226 C81.4411668,12.1252278 81.2270877,12.1999721 81.0015201,12.1999721 L79.2891679,12.1999721 C79.0630399,12.1999721 78.8907119,12.1252278 78.7719036,11.9738226 C78.6527009,11.8224174 78.6228328,11.6367886 78.6825172,11.4161149" id="Fill-31"></path>
                <path d="M97.6950354,0.000109515501 L108.754292,0.000109515501 C108.992189,0.000109515501 109.188334,0.0756752115 109.342729,0.226259026 C109.497124,0.377664207 109.574742,0.569316335 109.574742,0.802036775 L109.574742,1.60341646 C109.574742,1.83586311 109.497124,2.02778903 109.342729,2.17837284 C109.188334,2.32977802 108.992189,2.40534372 108.754292,2.40534372 L104.865843,2.40534372 L104.865843,11.4160054 C104.865843,11.6369529 104.785423,11.8228555 104.624864,11.9737131 C104.464305,12.1248445 104.270961,12.2004102 104.045113,12.2004102 L102.404214,12.2004102 C102.177806,12.2004102 101.985303,12.1248445 101.824463,11.9737131 C101.663904,11.8228555 101.583484,11.6369529 101.583484,11.4160054 L101.583484,2.40534372 L97.6950354,2.40534372 C97.4568584,2.40534372 97.2607127,2.32977802 97.106318,2.17837284 C96.9519233,2.02778903 96.8743056,1.83586311 96.8743056,1.60341646 L96.8743056,0.802036775 C96.8743056,0.569316335 96.9519233,0.377664207 97.106318,0.226259026 C97.2607127,0.0756752115 97.4568584,0.000109515501 97.6950354,0.000109515501" id="Fill-33"></path>
                <path d="M119.757199,9.86452666 L121.148713,9.86452666 C121.933576,9.86452666 122.513047,9.66164919 122.887965,9.25452532 C123.262604,8.84794902 123.449783,8.22699612 123.449783,7.38947633 L123.449783,0.801571334 C123.449783,0.581171388 123.529922,0.39170957 123.690482,0.235102403 C123.851041,0.0779476582 124.044385,0.000465440881 124.270232,0.000465440881 L125.893478,0.000465440881 C126.131095,0.000465440881 126.330603,0.0779476582 126.490882,0.235102403 C126.651442,0.39170957 126.731861,0.581171388 126.731861,0.801571334 L126.731861,7.37250142 C126.731861,8.92926428 126.265034,10.1350299 125.331661,10.9889771 C124.398007,11.843198 123.033113,12.2697609 121.237819,12.2697609 L119.668093,12.2697609 C117.872239,12.2697609 116.507905,11.843198 115.574252,10.9889771 C114.640598,10.1350299 114.174051,8.92926428 114.174051,7.37250142 L114.174051,0.801571334 C114.174051,0.581171388 114.254191,0.39170957 114.41503,0.235102403 C114.57559,0.0779476582 114.774537,0.000465440881 115.012434,0.000465440881 L116.63568,0.000465440881 C116.861248,0.000465440881 117.054591,0.0779476582 117.215431,0.235102403 C117.37599,0.39170957 117.45613,0.581171388 117.45613,0.801571334 L117.45613,7.38947633 C117.45613,8.22699612 117.643309,8.84794902 118.018227,9.25452532 C118.392866,9.66164919 118.972336,9.86452666 119.757199,9.86452666" id="Fill-35"></path>
                <path d="M140.99925,12.2000269 L139.750362,12.2000269 C139.524234,12.2000269 139.310435,12.1252825 139.108405,11.9741511 C138.905815,11.8224722 138.763469,11.6423192 138.680247,11.4328708 L135.611967,3.06780299 L135.611967,11.3811247 C135.611967,11.6135714 135.531828,11.8076876 135.371549,11.9653899 C135.21099,12.1217233 135.017366,12.2000269 134.791798,12.2000269 L133.221792,12.2000269 C132.995944,12.2000269 132.8026,12.1217233 132.642321,11.9653899 C132.481762,11.8076876 132.401342,11.6135714 132.401342,11.3811247 L132.401342,0.819175951 C132.401342,0.587003088 132.47868,0.391791707 132.633354,0.235458328 C132.787749,0.0783035836 132.978011,-1.50990331e-14 133.204139,-1.50990331e-14 L136.754096,-1.50990331e-14 C136.979664,-1.50990331e-14 137.193743,0.0783035836 137.396053,0.235458328 C137.598083,0.391791707 137.734825,0.580979735 137.805998,0.801653471 L140.374666,8.06937594 L142.943334,0.801653471 C143.014507,0.580979735 143.151529,0.391791707 143.353839,0.235458328 C143.555589,0.0783035836 143.769949,-1.50990331e-14 143.995796,-1.50990331e-14 L147.545474,-1.50990331e-14 C147.771321,-1.50990331e-14 147.961863,0.0783035836 148.116258,0.235458328 C148.270652,0.391791707 148.34855,0.587003088 148.34855,0.819175951 L148.34855,11.3811247 C148.34855,11.6135714 148.26785,11.8076876 148.107291,11.9653899 C147.946732,12.1217233 147.753388,12.2000269 147.527821,12.2000269 L145.958094,12.2000269 C145.731966,12.2000269 145.538623,12.1217233 145.378344,11.9653899 C145.217784,11.8076876 145.137645,11.6135714 145.137645,11.3811247 L145.137645,3.06780299 L142.069085,11.4328708 C141.985863,11.6423192 141.843517,11.8224722 141.641207,11.9741511 C141.438897,12.1252825 141.224818,12.2000269 140.99925,12.2000269" id="Fill-37"></path>
            </g>
            <g id="Group" transform="translate(159.965482, 0.000000)">
                <path d="M1.25197746,71.8212366 C0.560273055,71.8212366 1.20792265e-13,72.4189994 1.20792265e-13,73.1563914 L1.20792265e-13,83.5444885 C1.20792265e-13,84.2818805 0.560273055,84.8796433 1.25197746,84.8796433 L57.5108525,84.8796433 C58.2025569,84.8796433 58.76283,84.2818805 58.76283,83.5444885 L58.76283,73.1563914 C58.76283,72.4189994 58.2025569,71.8212366 57.5108525,71.8212366 L1.25197746,71.8212366 Z" id="Fill-43" fill="#FF2911"></path>
                <mask id="mask-2" fill="white">
                    <use xlink:href="#path-1"></use>
                </mask>
                <use id="Clip-41" fill="#FF2911" xlink:href="#path-1"></use>
            </g>
        </g>
    </g>
</svg>