<?xml version="1.0" encoding="UTF-8"?>
<svg width="100px" height="100px" viewBox="0 0 100 100" version="1.1" xmlns="http://www.w3.org/2000/svg" xmlns:xlink="http://www.w3.org/1999/xlink">
    <!-- Generator: Sketch 58 (84663) - https://sketch.com -->
    <title>img-empty-dark-multisend</title>
    <desc>Created with Sketch.</desc>
    <g id="img-empty-dark-multisend" stroke="none" stroke-width="1" fill="none" fill-rule="evenodd">
        <g id="img-empty-privacy" transform="translate(4.000000, 6.000000)" fill-rule="nonzero">
            <g id="Group_9086">
                <path d="M46,20 C32.745166,20 22,30.745166 22,44 C22,57.254834 32.745166,68 46,68 C59.254834,68 70,57.254834 70,44 C70,30.745166 59.254834,20 46,20 L46,20 Z M46,62 C36.0588745,62 28,53.9411255 28,44 C28,34.0588745 36.0588745,26 46,26 C55.9411255,26 64,34.0588745 64,44 C64,48.7738968 62.1035769,53.3522672 58.7279221,56.7279221 C55.3522672,60.1035769 50.7738968,62 46,62 Z" id="Path_19031" fill="#D6D6D6"></path>
                <g id="Group_9085" fill="#666666">
                    <g id="Group_9083">
                        <path d="M46,25 C35.5065898,25 27,33.5065898 27,44 C27,54.4934102 35.5065898,63 46,63 C56.4934102,63 65,54.4934102 65,44 C64.9884265,33.5113874 56.4886126,25.0115735 46,25 Z M46,61 C36.6111593,61 29,53.3888407 29,44 C29,34.6111593 36.6111593,27 46,27 C55.3888407,27 63,34.6111593 63,44 C62.989529,53.3845001 55.3845001,60.989529 46,61 L46,61 Z" id="Path_19032"></path>
                        <polygon id="Rectangle_4749" points="79 50 81 50 81 54 79 54"></polygon>
                        <polygon id="Rectangle_4750" points="79 38 81 38 81 46 79 46"></polygon>
                        <polygon id="Rectangle_4751" points="11 42 13 42 13 50 11 50"></polygon>
                        <polygon id="Rectangle_4752" points="11 34 13 34 13 38 11 38"></polygon>
                        <path d="M91.162,65 L81,65 L81,58 L79,58 L79,67 L86.838,67 L72,84.456 L57.162,67 L64,67 L64,65 L59.539,65 C70.3003152,58.0777859 74.094125,44.1451053 68.3280145,32.7225433 C62.561904,21.2999814 49.0990533,16.0784648 37.139,20.626 L20,0.456 L0.838,23 L11,23 L11,30 L13,30 L13,21 L5.162,21 L20,3.544 L34.838,21 L28,21 L28,23 L32.461,23 C21.6996848,29.9222141 17.905875,43.8548947 23.6719855,55.2774567 C29.438096,66.7000186 42.9009467,71.9215352 54.861,67.374 L72,87.544 L91.162,65 Z M23,44 C23,31.2974508 33.2974508,21 46,21 C58.7025492,21 69,31.2974508 69,44 C69,56.7025492 58.7025492,67 46,67 C33.3033905,66.9856716 23.0143284,56.6966095 23,44 Z" id="Path_19033"></path>
                    </g>
                    <g id="Group_9084" transform="translate(36.000000, 31.000000)">
                        <path d="M19,25 L19,26.5 L9,26.5 L9,25 L19,25 Z M20.0185547,9.29492188 L20.0185547,17.4570312 C20.0185547,19.2474048 19.47787,20.6546173 18.3964844,21.6787109 C17.3150988,22.7028046 15.829111,23.2148438 13.9384766,23.2148438 C12.0478421,23.2148438 10.5851289,22.6992239 9.55029297,21.6679688 C8.51545707,20.6367136 7.998,19.218759 7.998,17.4140625 L7.998,14.9999219 L9.824,14.9999219 L9.82421875,17.5429688 C9.82421875,18.8535222 10.1822881,19.859697 10.8984375,20.5615234 C11.6145869,21.2633499 12.6673108,21.6142578 14.0566406,21.6142578 C15.381517,21.6142578 16.4020146,21.2615595 17.1181641,20.5561523 C17.8343135,19.8507452 18.1923828,18.8391993 18.1923828,17.5214844 L18.1923828,9.29492188 L20.0185547,9.29492188 Z M12.821,7.28306304e-14 L12.822,1.617 L3.53,12.6 L11.954,12.64 L11.954,14.34 L0.68,14.34 L0.68,12.927 L10.155,1.691 L0.977,1.691 L0.977,7.28306304e-14 L12.821,7.28306304e-14 Z" id="Combined-Shape"></path>
                    </g>
                </g>
            </g>
        </g>
        <polygon id="Rectangle-Copy" fill="#666666" transform="translate(49.000000, 47.450000) rotate(-90.000000) translate(-49.000000, -47.450000) " points="47.55 46.55 50.45 46.55 50.45 48.35 47.55 48.35"></polygon>
    </g>
</svg>