<?xml version="1.0" encoding="UTF-8"?>
<svg width="100px" height="100px" viewBox="0 0 100 100" version="1.1" xmlns="http://www.w3.org/2000/svg" xmlns:xlink="http://www.w3.org/1999/xlink">
    <!-- Generator: Sketch 58 (84663) - https://sketch.com -->
    <title>img-empty-multisend</title>
    <desc>Created with Sketch.</desc>
    <g id="img-empty-multisend" stroke="none" stroke-width="1" fill="none" fill-rule="evenodd">
        <g transform="translate(7.000000, 6.000000)" fill-rule="nonzero" id="Group_9031">
            <g>
                <g id="Group_9029" transform="translate(7.000000, 12.000000)" fill="#D6D6D6">
                    <polygon id="Rectangle_4683" points="31 0 41 0 41 9 31 9"></polygon>
                    <g id="Group_9028" transform="translate(0.000000, 48.000000)">
                        <polygon id="Rectangle_4684" points="0 0 6 0 6 10 0 10"></polygon>
                        <polygon id="Rectangle_4685" points="66 0 72 0 72 10 66 10"></polygon>
                        <polygon id="Rectangle_4686" points="33 0 39 0 39 10 33 10"></polygon>
                    </g>
                </g>
                <g id="Group_9030" fill="#666666">
                    <polygon id="Rectangle_4688" points="60 34 62 34 62 38 60 38"></polygon>
                    <circle id="Ellipse_626" cx="43" cy="67" r="1"></circle>
                    <circle id="Ellipse_627" cx="76" cy="67" r="1"></circle>
                    <polygon id="Rectangle_4689" points="25 52 29 52 29 54 25 54"></polygon>
                    <path d="M9,59 L6,59 L6,62 L0,62 L0,66 L2,66 L2,64 L6,64 L6,71 L14,71 L14,64 L18,64 L18,85 L2,85 L2,70 L0,70 L0,87 L20,87 L20,62 L14,62 L14,59 L11,59 L11,54 L21,54 L21,52 L9,52 L9,59 Z M12,61 L12,69 L8,69 L8,61 L12,61 Z" id="Path_18986"></path>
                    <circle id="Ellipse_628" cx="10" cy="67" r="1"></circle>
                    <path d="M80,62 L80,59 L77,59 L77,52 L44,52 L44,47 L62,47 L62,42 L60,42 L60,45 L26,45 L26,22 L60,22 L60,30 L62,30 L62,22 L66,22 L66,11 L52.46,11 C53.9617815,9.32806875 54.4021267,6.95653815 53.6006422,4.85693712 C52.7991578,2.75733608 50.8905263,1.2824845 48.656644,1.03657485 C46.4227617,0.790665204 44.2390132,1.81502049 43,3.69 C41.7631908,1.80929845 39.577106,0.779900068 37.3394992,1.02454518 C35.1018924,1.26919029 33.1898904,2.74664636 32.3886901,4.85017038 C31.5874898,6.9536944 32.0321255,9.32875799 33.54,11 L20,11 L20,22 L24,22 L24,47 L42,47 L42,52 L33,52 L33,54 L42,54 L42,59 L39,59 L39,62 L33,62 L33,78 L35,78 L35,64 L39,64 L39,71 L47,71 L47,64 L51,64 L51,85 L35,85 L35,82 L33,82 L33,87 L53,87 L53,62 L47,62 L47,59 L44,59 L44,54 L75,54 L75,59 L72,59 L72,62 L66,62 L66,74 L68,74 L68,64 L72,64 L72,71 L80,71 L80,64 L84,64 L84,85 L68,85 L68,78 L66,78 L66,87 L86,87 L86,62 L80,62 Z M64,13 L64,20 L49,20 L49,13 L64,13 Z M44,7 C44,4.790861 45.790861,3 48,3 C50.209139,3 52,4.790861 52,7 C52,9.209139 50.209139,11 48,11 L44,11 L44,7 Z M44,13 L47,13 L47,20 L39,20 L39,13 L44,13 Z M38,3 C40.209139,3 42,4.790861 42,7 L42,11 L38,11 C35.790861,11 34,9.209139 34,7 C34,4.790861 35.790861,3 38,3 Z M22,20 L22,13 L37,13 L37,20 L22,20 Z M45,61 L45,69 L41,69 L41,61 L45,61 Z M78,69 L74,69 L74,61 L78,61 L78,69 Z" id="Path_18987"></path>
                </g>
            </g>
        </g>
        <path d="M55.6382353,44.5294118 C55.8380324,44.5294118 56,44.6913793 56,44.8911765 L56,44.8911765 L56,46.6382353 C56,46.8380324 55.8380324,47 55.6382353,47 L55.6382353,47 L45.3617647,47 C45.1619676,47 45,46.8380324 45,46.6382353 L45,46.6382353 L45,44.8911765 C45,44.6913793 45.1619676,44.5294118 45.3617647,44.5294118 L45.3617647,44.5294118 Z M47.2642901,33 L47.3763041,33.0058663 C47.8539956,33.056235 48.2247855,33.4247864 48.2247855,33.8719573 L48.2247855,33.8719573 L48.2247855,37.8004319 L48.2302204,37.9849935 C48.3095546,39.3073882 49.2490933,39.9471805 50.5000714,39.9471805 L50.5000714,39.9471805 L50.6729374,39.9432108 C51.9228648,39.8849594 52.7752621,39.1849699 52.7752621,37.8004319 L52.7752621,37.8004319 L52.7752621,33.8719573 L52.7817227,33.7702686 C52.8371946,33.3366106 53.2430927,33 53.7357575,33 L53.7357575,33 L55.0395046,33 L55.1509246,33.0058032 C55.6261287,33.0556331 55.9956683,33.4202922 56,33.8640924 L56,33.8640924 L56,37.6783112 L55.9929742,37.967985 C55.9277144,39.3964919 55.4104929,40.5267838 54.4413489,41.3458642 L54.4413489,41.3458642 L54.2299445,41.5126251 C53.2266238,42.2644874 51.988222,42.6470588 50.5000714,42.6470588 L50.5000714,42.6470588 L50.1849969,42.641208 C48.7324279,42.5866227 47.5284192,42.1504145 46.5586511,41.3458642 L46.5586511,41.3458642 L46.3806761,41.1871731 C45.4602386,40.3210486 45,39.1388509 45,37.6539822 L45,37.6539822 L45,33.8719573 L45.006462,33.7702686 C45.0619451,33.3366106 45.467919,33 45.9604954,33 L45.9604954,33 L47.2642901,33 Z" id="Combined-Shape" fill="#666666"></path>
    </g>
</svg>