<?xml version="1.0" encoding="UTF-8"?>
<svg width="100px" height="100px" viewBox="0 0 100 100" version="1.1" xmlns="http://www.w3.org/2000/svg" xmlns:xlink="http://www.w3.org/1999/xlink">
    <!-- Generator: Sketch 58 (84663) - https://sketch.com -->
    <title>img-empty-transactions</title>
    <desc>Created with Sketch.</desc>
    <g id="img-empty-transactions" stroke="none" stroke-width="1" fill="none" fill-rule="evenodd">
        <g id="img-empty-transactions-copy" transform="translate(4.000000, 6.000000)">
            <g id="Group_9015">
                <path d="M46,20 C32.745166,20 22,30.745166 22,44 C22,57.254834 32.745166,68 46,68 C59.254834,68 70,57.254834 70,44 C70,30.745166 59.254834,20 46,20 L46,20 Z M46,62 C36.0588745,62 28,53.9411255 28,44 C28,34.0588745 36.0588745,26 46,26 C55.9411255,26 64,34.0588745 64,44 C64,48.7738968 62.1035769,53.3522672 58.7279221,56.7279221 C55.3522672,60.1035769 50.7738968,62 46,62 Z" id="Path_18970" fill="#D6D6D6" fill-rule="nonzero"></path>
                <path d="M53.4831933,50.4705882 C53.7686177,50.4705882 54,50.7019705 54,50.987395 L54,50.987395 L54,53.4831933 C54,53.7686177 53.7686177,54 53.4831933,54 L53.4831933,54 L39.5168067,54 C39.2313823,54 39,53.7686177 39,53.4831933 L39,53.4831933 L39,50.987395 C39,50.7019705 39.2313823,50.4705882 39.5168067,50.4705882 L39.5168067,50.4705882 Z M42.0876683,34 L42.2215843,34.0064312 C42.8820419,34.0702211 43.3974347,34.6006952 43.3974347,35.2456532 L43.3974347,35.2456532 L43.3974347,40.8577599 L43.4021057,41.067862 C43.488969,42.9932828 44.7781753,43.9245435 46.5000974,43.9245435 L46.5000974,43.9245435 L46.6875925,43.9209772 C48.4183048,43.8543783 49.6026302,42.8542723 49.6026302,40.8577599 L49.6026302,40.8577599 L49.6026302,35.2456532 L49.6093909,35.1182924 C49.6764503,34.4901643 50.2341212,34 50.9123966,34 L50.9123966,34 L52.6902335,34 L52.8234378,34.006362 C53.4804387,34.0694682 53.9940363,34.5943213 54,35.2344178 L54,35.2344178 L54,40.6833018 L53.9936503,41.0152653 C53.9201272,43.0947078 53.2137474,44.7369467 51.8745667,45.9226632 L51.8745667,45.9226632 L51.6350147,46.1223084 C50.2582829,47.2218919 48.553552,47.7815126 46.5000974,47.7815126 L46.5000974,47.7815126 L46.1413365,47.7757074 C44.1288109,47.7099377 42.4635873,47.0857036 41.1254333,45.9226632 L41.1254333,45.9226632 L40.9182065,45.7306422 C39.6394207,44.4902689 39,42.7896737 39,40.648546 L39,40.648546 L39,35.2456532 L39.0067622,35.1182924 C39.0738353,34.4901643 39.6316128,34 40.3097665,34 L40.3097665,34 L42.0876683,34 Z" id="Combined-Shape" fill="#666666"></path>
                <g id="Group_9014" fill="#666666" fill-rule="nonzero">
                    <g id="Group_9013">
                        <path d="M46,25 C35.5065898,25 27,33.5065898 27,44 C27,54.4934102 35.5065898,63 46,63 C56.4934102,63 65,54.4934102 65,44 C64.9884265,33.5113874 56.4886126,25.0115735 46,25 Z M46,61 C36.6111593,61 29,53.3888407 29,44 C29,34.6111593 36.6111593,27 46,27 C55.3888407,27 63,34.6111593 63,44 C62.989529,53.3845001 55.3845001,60.989529 46,61 L46,61 Z" id="Path_18972"></path>
                        <polygon id="Rectangle_4664" points="79 50 81 50 81 54 79 54"></polygon>
                        <polygon id="Rectangle_4665" points="79 38 81 38 81 46 79 46"></polygon>
                        <polygon id="Rectangle_4666" points="11 42 13 42 13 50 11 50"></polygon>
                        <polygon id="Rectangle_4667" points="11 34 13 34 13 38 11 38"></polygon>
                        <path d="M91.162,65 L81,65 L81,58 L79,58 L79,67 L86.838,67 L72,84.456 L57.162,67 L64,67 L64,65 L59.539,65 C70.3003152,58.0777859 74.094125,44.1451053 68.3280145,32.7225433 C62.561904,21.2999814 49.0990533,16.0784648 37.139,20.626 L20,0.456 L0.838,23 L11,23 L11,30 L13,30 L13,21 L5.162,21 L20,3.544 L34.838,21 L28,21 L28,23 L32.461,23 C21.6996848,29.9222141 17.905875,43.8548947 23.6719855,55.2774567 C29.438096,66.7000186 42.9009467,71.9215352 54.861,67.374 L72,87.544 L91.162,65 Z M23,44 C23,31.2974508 33.2974508,21 46,21 C58.7025492,21 69,31.2974508 69,44 C69,56.7025492 58.7025492,67 46,67 C33.3033905,66.9856716 23.0143284,56.6966095 23,44 Z" id="Path_18973"></path>
                    </g>
                </g>
            </g>
        </g>
    </g>
</svg>